<?xml version="1.0" encoding="UTF-8"?>
<svg id="_Слой_2" data-name="Слой 2" xmlns="http://www.w3.org/2000/svg" viewBox="0 0 419.54 148.74">
  <g id="_Слой_1-2" data-name="Слой 1">
    <g>
      <path d="M.49,58.62c-1.26-4.65-.08-10.22,3.52-16.71,2.09-3.74,4.99-7.81,8.68-12.22,6.62-7.98,13.33-14.67,20.12-20.07C38.75,4.81,44.24,1.73,49.27,.4c1.26-.33,2.22-.46,2.89-.37,1.09,.17,2.01,.6,2.77,1.31,.75,.71,1.17,1.52,1.26,2.43,.17,2.83-1.76,7.15-5.78,12.97-2.51,3.66-6.37,8.15-11.57,13.47-4.28,4.49-7.38,6.73-9.3,6.73-.42,0-.8-.12-1.13-.37-.34-.25-.5-.54-.5-.87s.08-.5,.25-.5c.5,0,.75,.17,.75,.5,0,.25,.21,.33,.63,.25,1.34-.42,3.52-2.04,6.54-4.86,4.69-4.32,9.05-9.31,13.08-14.96,2.09-2.99,3.69-5.86,4.78-8.6,1.26-3.24,1.3-5.19,.13-5.86-1.51-.91-4.82,.08-9.93,2.99-7.88,4.41-16.72,12.18-26.53,23.32-7.04,7.9-11.69,14.63-13.96,20.2-1.59,3.91-2.2,7.21-1.82,9.91,.38,2.7,1.61,4.34,3.71,4.93,2.18,.67,6.12-.37,11.82-3.12,6.71-3.24,15-8.85,24.89-16.83,.42-.33,.71-.42,.88-.25,.25,.25,.08,.54-.5,.87-.08,.08-1.89,1.43-5.41,4.05s-6.54,4.8-9.05,6.55c-2.51,1.75-4.57,3.08-6.16,3.99-2.85,1.58-5.2,2.79-7.04,3.62-1.84,.83-3.88,1.5-6.1,2-2.22,.5-4.02,.31-5.41-.56-1.38-.87-2.37-2.43-2.95-4.68Z"/>
      <path d="M43.74,54.63c-1.59,1.16-3,1.73-4.21,1.68-1.21-.04-1.86-.73-1.95-2.06,0-.42-.17-.79-.5-1.12-.25-.17-.38-.46-.38-.87,.08-1.41,2.47-5.24,7.17-11.47l2.64-3.49c.5-.66,1.34-1.66,2.51-2.99,2.93-3.66,6.29-7.15,10.06-10.47,2.51-2.16,4.73-3.74,6.66-4.74,.42-.25,.88-.21,1.38,.12,.33,.25,.33,.58,0,1-.34,.42-1.38,1.54-3.14,3.37-4.78,4.57-8.42,7.81-10.94,9.73-2.1,1.58-3.69,3.04-4.78,4.36l-3.77,4.74c-1.26,1.58-1.89,2.58-1.89,2.99l.13,.62,.88-.62c1.93-1.5,3.6-2.16,5.03-2,1.59,.17,2.26,.96,2.01,2.37-.17,1-.67,2.12-1.51,3.37l-.5,.75c2.51,0,7.04-2.49,13.58-7.48,.33-.25,.58-.21,.75,.12-1.34,1.33-3.81,3.12-7.42,5.36-1.01,.58-2.22,1.17-3.65,1.75-1.17,.5-2.1,.79-2.77,.87l-1.13,.12-.88,1c-1.51,1.5-2.64,2.49-3.39,2.99Zm-4.9,.75c.5,.67,1.8,.17,3.9-1.5,1.93-1.58,3.06-2.7,3.39-3.37-.25,0-.84-.31-1.76-.93-.92-.62-1.55-1.27-1.89-1.93l-1.01,.87c-1.01,.92-1.76,1.87-2.26,2.87-1.01,1.91-1.13,3.24-.38,3.99Zm2.14-7.98c.08,.08,.29-.04,.63-.37,.33-.33,.5-.54,.5-.62l-.13-.37c-.08-.08-.17-.08-.25,0-.08,.08-.21,.29-.38,.62l-.38,.75Zm4.4,2.12c.67,.33,1.07,.48,1.19,.44,.13-.04,.36-.31,.69-.81,1.59-1.91,2.3-3.41,2.14-4.49-.17-.25-.38-.37-.63-.37-.34,0-1.26,.33-2.77,1-1.93,1-2.89,1.66-2.89,2,.25,1,1.01,1.75,2.26,2.24Zm7.79-17.33l1.13-.87c2.77-2,5.99-4.99,9.68-8.98l1.01-1.12c-.25,0-1.76,1.25-4.53,3.74-2.01,1.75-3.98,3.66-5.91,5.74l-1.38,1.5Z"/>
      <path d="M63.22,51.14c-.59-.33-.88-.96-.88-1.87s.17-1.79,.5-2.62l.25-.62-.75,.37c-.42,.33-.8,.58-1.13,.75-.17,.08-.46,.25-.88,.5-.42,.25-.75,.46-1.01,.62-.59,.33-1.11,.31-1.57-.06-.46-.37-.57-.93-.31-1.68,.33-.83,1.24-1.83,2.7-2.99,1.46-1.16,2.79-1.91,3.96-2.24,1.01-.25,1.72-.04,2.14,.62,.17,.25,.29,.33,.38,.25,.42-.17,.71-.08,.88,.25l-.12,.12c-.08,.17-.17,.31-.25,.44-.08,.12-.17,.27-.25,.44-1.68,1.66-2.77,3.16-3.27,4.49-.42,1.33-.38,2.2,.13,2.62,.75,.5,2.47,.21,5.15-.87,2.77-1.08,6.2-3.16,10.31-6.23,1.42-1.08,2.09-1.37,2.01-.87-.08,.33-1.24,1.29-3.46,2.87-2.22,1.58-4.17,2.83-5.85,3.74-1.09,.58-2.18,1.08-3.27,1.5-1.09,.42-2.12,.69-3.08,.81-.96,.12-1.74,.02-2.33-.31Zm-3.39-4.86c-.42,.5-.59,.75-.5,.75s.8-.37,2.14-1.12c2.85-1.58,4.27-2.78,4.27-3.62-.17-.5-.84-.33-2.01,.5-1.43,.92-2.72,2.08-3.9,3.49Z"/>
      <path d="M42.86,94.53c-2.35,0-2.51-2.24-.5-6.73l1.01-1.87c4.36-8.23,10.81-16.17,19.36-23.81,3.44-2.99,8.59-6.4,15.46-10.22,1.09-.58,1.97-1.41,2.64-2.49l1.13-1.75-.5,.37-.25,.25c-1.01,.92-1.97,1.5-2.89,1.75-.92,.25-1.55,.08-1.89-.5-.67-1.25,.23-3.14,2.7-5.67,2.47-2.53,4.59-3.8,6.35-3.8,.67,0,1.05,.12,1.13,.37,.25,.17,.42,.21,.5,.12l1.76-2.12c1.42-1.83,2.35-2.91,2.77-3.24,.75-.75,1.26-1.12,1.51-1.12l.25,.25c0,.25-.34,.71-1.01,1.37-1.93,2.33-5.2,6.82-9.81,13.47l-.88,1.25c5.11-2.24,9.64-4.65,13.58-7.23l1.26-.87c.17-.17,.33-.08,.5,.25-.08,.17-.29,.37-.63,.62l-.5,.37c-1.93,1.41-6.87,4.07-14.84,7.98l-1.51,1.99c-6.37,9.14-13.49,18.41-21.37,27.8-7.38,8.81-12.49,13.22-15.34,13.22Zm-.38-.75c1.93,.17,5.32-2.41,10.18-7.73,7.46-8.23,15.42-18.41,23.89-30.55l2.26-3.12c-2.85,1.42-5.53,2.95-8.05,4.61-2.93,1.83-6.24,4.53-9.93,8.1-3.69,3.58-6.66,6.9-8.93,9.97-5.95,7.48-9.26,13.13-9.93,16.96-.25,1.16-.08,1.75,.5,1.75Zm35.33-44.39c.92,0,2.2-.77,3.83-2.31,1.63-1.54,2.91-2.97,3.83-4.3,.59-.83,.88-1.37,.88-1.62s-.12-.37-.38-.37c-1.51,0-3.69,1.66-6.54,4.99-2.1,2.41-2.64,3.62-1.63,3.62Z"/>
      <path d="M93.02,49.15c-1.09-1.08-1.01-2.49,.25-4.24,.92-1.58,2.26-2.74,4.02-3.49,1.01-.42,1.72-.42,2.14,0,.33,.25,.4,.67,.19,1.25-.21,.58-.61,1.08-1.2,1.5-1.17,.83-2.39,1.33-3.65,1.5-.34,0-.63,.21-.88,.62-1.01,1.75-.55,2.74,1.38,2.99,3.77,0,8.46-1.95,14.08-5.86l1.51-1c.08-.08,.21-.08,.38,0,.17,.08,.21,.21,.13,.37-3.1,2.49-6.62,4.49-10.56,5.98-3.94,1.5-6.54,1.62-7.8,.37Zm1.89-4.24c.58,0,1.42-.33,2.51-1,.75-.5,1.26-1.04,1.51-1.62,.08-.25,0-.37-.25-.37l-1.38,.75c-1.68,1.25-2.47,2-2.39,2.24Z"/>
      <path d="M105.59,50.15c-.33-.5-.33-1.16,0-1.99,.25-.83,1.13-2.08,2.64-3.74,.75-.91,1.51-1.58,2.26-1.99l1.26-.87c.42,0,.63-.12,.63-.37,0-.08,.21-.12,.63-.12,.33,0,.67,.08,1.01,.25l.75-1.25c2.18-4.07,3.56-7.44,4.15-10.1,1.01-4.32,1.42-8.1,1.26-11.35-.08-.58-.25-.87-.5-.87-.75,0-3.14,.79-7.17,2.37-.08,0-.21,.04-.38,.12l-.63,.25,.25,.12c.5,.25,.33,.5-.5,.75-.17,0-.34,.04-.5,.12-.84,.25-1.38,.25-1.63,0-.34-.17-.5-.37-.5-.62,0-.66,1.34-1.5,4.02-2.49,5.53-2.33,12.82-4.07,21.88-5.24,5.87-.66,10.18-.87,12.95-.62,3.18,.33,4.78,1.17,4.78,2.49-.08,.58-.55,1.17-1.38,1.75-.34,.25-.67,.25-1.01,0l-.38-.25,.75-.87c.5-.5,.75-.83,.75-1-.08-.75-2.93-1-8.55-.75-6.96,.5-13.29,1.46-18.99,2.87l-2.77,.62,.13,2.37c0,2.74-.17,5.24-.5,7.48-.67,3.74-1.17,6.07-1.51,6.98-.84,2.24-1.84,4.36-3.02,6.36-2.35,4.16-4.32,6.9-5.91,8.23-1.93,1.83-3.35,2.29-4.27,1.37Zm.88-.25c.42,.25,1.38-.37,2.89-1.87,1.51-1.58,2.35-2.78,2.51-3.62,.33-.5,.42-.95,.25-1.37v-.37l-1.26,1.25c-1.43,1.17-2.64,2.49-3.65,3.99-.67,1-.92,1.66-.75,2Z"/>
      <path d="M125.83,50.77c-2.01,.58-3.35,.33-4.02-.75-.5-1,0-2.49,1.51-4.49,.5-.66,.71-1,.63-1-.34,.17-1.01,.25-2.01,.25l-1.76,.12-1.89,2c-1.76,2-2.6,3.16-2.51,3.49,.08,.25,0,.37-.25,.37l-.25-.25c-.17-.08-.29-.17-.38-.25-.17-.25-.21-.58-.13-1l.88-1.62c.5-.66,1.78-2.1,3.83-4.3,2.05-2.2,3.41-3.63,4.09-4.3,.92-.75,1.51-1,1.76-.75,.58,.42-.29,1.83-2.64,4.24l-2.01,1.87,1.38-.12c1.59-.08,2.72-.42,3.4-1,1.76-1.66,2.89-2.24,3.39-1.75,.42,.33,.21,.83-.63,1.5-.92,.75-1.95,1.73-3.08,2.93-1.13,1.21-1.87,2.1-2.2,2.68-.42,1.25-.15,1.87,.82,1.87s2.03-.29,3.21-.87c2.18-.83,5.41-2.74,9.68-5.74l2.39-1.62c.17-.08,.29-.08,.38,0,.08,.08,.08,.21,0,.37-.25,.33-2.26,1.79-6.04,4.36-2.93,2.08-5.45,3.33-7.54,3.74Z"/>
      <path d="M140.16,51.14c-.59-.33-.88-.96-.88-1.87s.17-1.79,.5-2.62l.25-.62-.75,.37c-.42,.33-.8,.58-1.13,.75-.17,.08-.46,.25-.88,.5-.42,.25-.75,.46-1.01,.62-.59,.33-1.11,.31-1.57-.06-.46-.37-.57-.93-.31-1.68,.33-.83,1.24-1.83,2.7-2.99,1.46-1.16,2.79-1.91,3.96-2.24,1.01-.25,1.72-.04,2.14,.62,.17,.25,.29,.33,.38,.25,.42-.17,.71-.08,.88,.25l-.12,.12c-.08,.17-.17,.31-.25,.44-.08,.12-.17,.27-.25,.44-1.68,1.66-2.77,3.16-3.27,4.49-.42,1.33-.38,2.2,.13,2.62,.75,.5,2.47,.21,5.15-.87,2.77-1.08,6.2-3.16,10.31-6.23,1.42-1.08,2.09-1.37,2.01-.87-.08,.33-1.24,1.29-3.46,2.87-2.22,1.58-4.17,2.83-5.85,3.74-1.09,.58-2.18,1.08-3.27,1.5-1.09,.42-2.12,.69-3.08,.81-.96,.12-1.74,.02-2.33-.31Zm-3.39-4.86c-.42,.5-.59,.75-.5,.75s.8-.37,2.14-1.12c2.85-1.58,4.27-2.78,4.27-3.62-.17-.5-.84-.33-2.01,.5-1.43,.92-2.72,2.08-3.9,3.49Z"/>
      <path d="M160.41,52.14c-.34-.33-.46-.71-.38-1.12,.17-1.83,2.05-4.53,5.66-8.1l.75-.87h-.25c-.5,.25-.8,.42-.88,.5-4.44,3.66-7.46,5.28-9.05,4.86-1.17-.42-1.34-1.33-.5-2.74,.5-.66,.88-1.12,1.13-1.37l.38-.37c.84-.83,1.34-1,1.51-.5,.08,.17-.29,.79-1.13,1.87-1.09,1.25-1.51,2-1.26,2.24,.17,.17,.96-.12,2.39-.87,1.68-.75,3.27-1.75,4.78-2.99l1.01-.75-.5-.62c-1.26-1.16-.84-2.78,1.26-4.86,2.43-2.24,3.94-2.66,4.53-1.25,.25,.58,.08,1.41-.5,2.49-.25,.5-.92,1.5-2.01,2.99l-.38,.37,.38-.12c.17-.17,.48-.25,.94-.25s.77,.08,.94,.25c.17,.25-.46,1.04-1.89,2.37-3.27,3.24-5.37,5.78-6.29,7.61l-.38,.75,.5,.12c.25,0,1.01-.21,2.26-.62,.58-.25,1.68-.87,3.27-1.87,2.26-1.41,5.49-3.62,9.68-6.61,.33-.25,.75-.37,1.26-.37l.13,.12-.5,.5-9.3,6.48c-1.51,1-2.68,1.71-3.52,2.12-2.1,1.08-3.44,1.29-4.02,.62Zm4.15-10.97c.42,.17,1.05-.25,1.89-1.25,1.84-1.99,2.77-3.45,2.77-4.36,0-.17-.29-.17-.88,0-1.26,.67-2.35,1.66-3.27,2.99-.92,1.33-1.09,2.2-.5,2.62Z"/>
      <path d="M193.97,54.76c-.75-.42-.04-1.37,2.14-2.87l1.26-.87,1.38-2.12,1.63-2.74,.38-.5c-5.11,3.58-8.26,5.11-9.43,4.61-1.09-.5-.88-2.12,.63-4.86,.33-.66,1.72-2.37,4.15-5.11,.92-1,1.47-1.5,1.63-1.5,.42,0,.63,.25,.63,.75,0,.25-.92,1.42-2.77,3.49-1.26,1.41-2.22,2.6-2.89,3.55-.67,.96-1.07,1.66-1.19,2.12-.12,.46-.06,.77,.19,.94,.84,.33,2.56-.33,5.16-2,2.6-1.66,4.65-3.37,6.16-5.11,.75-.83,1.3-1.25,1.63-1.25,.17,0,.25,.08,.25,.25l-.25,.37c-.42,.42-.75,.79-1.01,1.12-1.26,1.83-2.89,4.32-4.9,7.48,1.93-.58,3.77-1.33,5.53-2.24,2.68-1.41,5.61-3.2,8.8-5.36,.25-.17,.46-.12,.63,.12,.08,.08,.08,.17,0,.25-4.44,3.16-9.6,5.86-15.46,8.1-.25,.08-.84,.62-1.76,1.62-1.26,1.41-2.1,2-2.51,1.75Zm.5-.62c.08,0,.54-.42,1.38-1.25,.33-.33,.33-.37,0-.12-.25,.25-.5,.46-.75,.62-.67,.5-.88,.75-.63,.75Z"/>
      <path d="M210.44,49.15c-1.09-1.08-1.01-2.49,.25-4.24,.92-1.58,2.26-2.74,4.02-3.49,1.01-.42,1.72-.42,2.14,0,.33,.25,.4,.67,.19,1.25-.21,.58-.61,1.08-1.2,1.5-1.17,.83-2.39,1.33-3.65,1.5-.34,0-.63,.21-.88,.62-1.01,1.75-.55,2.74,1.38,2.99,3.77,0,8.46-1.95,14.08-5.86l1.51-1c.08-.08,.21-.08,.38,0,.17,.08,.21,.21,.13,.37-3.1,2.49-6.62,4.49-10.56,5.98-3.94,1.5-6.54,1.62-7.8,.37Zm1.89-4.24c.58,0,1.42-.33,2.51-1,.75-.5,1.26-1.04,1.51-1.62,.08-.25,0-.37-.25-.37l-1.38,.75c-1.68,1.25-2.47,2-2.39,2.24Z"/>
      <path d="M201.64,85.93c-.08,.17-.29,.08-.63-.25l-.38-.12,1.13-1.75,12.07-19.58c10.14-15.96,17.6-26.89,22.38-32.79,.58-.67,1.01-.96,1.26-.87,.25,0,.38,.04,.38,.12,0,.42-1.51,2.79-4.53,7.11l-3.02,4.24,.25,.37,.25,.5,2.26-1.25c2.18-1.08,3.77-1.7,4.78-1.87,.84,0,1.34,.25,1.51,.75,.33,.83-.42,2.45-2.26,4.86l-1.63,1.87c3.18,1.25,7.08,.58,11.69-2,1.42-.83,2.89-1.79,4.4-2.87,.17-.17,.31-.21,.44-.12,.13,.08,.15,.21,.06,.37l-.63,.62c-1.84,1.42-3.39,2.41-4.65,2.99-4.36,2.24-8.38,2.79-12.07,1.62l-1.13,1.25c-3.02,2.83-5.07,3.28-6.16,1.37-.42-.83-.42-1.91,0-3.24l.13-.62c-.17,.25-1.17,1.66-3.02,4.24-4.28,5.82-9.09,13.18-14.46,22.07-5.03,8.06-7.84,12.38-8.42,12.97Zm26.91-35.04c.67,.17,1.46-.12,2.39-.87,.25-.17,.61-.46,1.07-.87,.46-.42,.86-.79,1.19-1.12l.38-.62c-1.09-.58-2.05-1.5-2.89-2.74-.08-.25-.34-.21-.75,.12-.42,.33-.84,.96-1.26,1.87-.92,2.58-.96,3.99-.12,4.24Zm5.66-4.11c.08,0,.31-.21,.69-.62,.38-.42,.82-.94,1.32-1.56s.88-1.14,1.13-1.56c.5-.66,.84-1.25,1.01-1.75,.17-.42,.21-.67,.12-.75-.25-.25-1.63,.21-4.15,1.37-2.01,1.08-3.02,1.83-3.02,2.24,0,.25,.36,.75,1.07,1.5,.71,.75,1.32,1.12,1.82,1.12Z"/>
      <path d="M248.29,49.15c-1.09-1.08-1.01-2.49,.25-4.24,.92-1.58,2.26-2.74,4.02-3.49,1.01-.42,1.72-.42,2.14,0,.33,.25,.4,.67,.19,1.25-.21,.58-.61,1.08-1.2,1.5-1.17,.83-2.39,1.33-3.65,1.5-.34,0-.63,.21-.88,.62-1.01,1.75-.55,2.74,1.38,2.99,3.77,0,8.46-1.95,14.08-5.86l1.51-1c.08-.08,.21-.08,.38,0,.17,.08,.21,.21,.13,.37-3.1,2.49-6.62,4.49-10.56,5.98-3.94,1.5-6.54,1.62-7.8,.37Zm1.89-4.24c.58,0,1.42-.33,2.51-1,.75-.5,1.26-1.04,1.51-1.62,.08-.25,0-.37-.25-.37l-1.38,.75c-1.68,1.25-2.47,2-2.39,2.24Z"/>
      <path d="M277.08,52.89c-1.26,.5-2.18,.46-2.77-.12-1.17-1.16-.63-3.45,1.63-6.86l.88-1.25-2.14,1.37c-1.84,1.08-2.98,1.41-3.39,1,0-.08-.08-.21-.25-.37l-.13-.25c0-.58,.46-1.54,1.38-2.87l.5-.75c-.17,0-.67,.37-1.51,1.12-3.69,2.74-5.91,4.2-6.66,4.36-.42,.08-.75,0-1.01-.25-.75-.5-.88-1.25-.38-2.24,.33-.58,1.01-1.37,2.01-2.37s1.59-1.5,1.76-1.5c.33,0,.59,.21,.75,.62l-.5,.5c-.34,.42-.71,.83-1.13,1.25-.42,.42-.67,.75-.75,1-.34,.42-.67,.96-1.01,1.62l-.25,.62,.5-.12c.75-.25,2.62-1.43,5.59-3.55,2.97-2.12,5.22-3.88,6.73-5.3l1.38-1.25c.33-.33,.67-.33,1.01,0,.17,.25-.8,1.54-2.89,3.87-3.52,3.74-4.95,5.61-4.27,5.61,.33-.08,1.42-.75,3.27-2,1.84-1.25,3.14-2.2,3.9-2.87,2.51-2.33,3.94-3.49,4.27-3.49,.17-.08,.36-.02,.57,.19,.21,.21,.27,.44,.19,.69,0,.25-1.13,1.41-3.39,3.49l-2.51,2.49c-2.35,2.66-3.6,4.91-3.77,6.73v.62l.75-.12c1.51-.17,4.06-1.54,7.67-4.11,4.28-3.16,6.83-5.03,7.67-5.61l.75-.5c.33-.08,.54,0,.63,.25-.34,.33-.82,.73-1.45,1.18-.63,.46-.99,.73-1.07,.81l-7.17,5.36c-2.35,1.58-4.15,2.58-5.41,2.99Z"/>
      <path d="M288.26,48.27c-.34-.42-.34-1.04,0-1.87,.25-.83,1.09-2.04,2.51-3.62,.75-.83,1.46-1.5,2.14-2l1.26-.75c.42,0,.63-.12,.63-.37,0-.08,.21-.12,.63-.12,.59,.17,.92,.37,1.01,.62-.17,.17-.29,.21-.38,.12-.17,.08-.29,.25-.38,.5l-.25,1.12c-.17,1,0,1.75,.5,2.24,2.51,2.24,5.87,1.79,10.06-1.37l.88-.5c.33-.17,.54-.08,.63,.25l-1.51,1.12c-1.34,1-2.89,1.71-4.65,2.12-1.76,.42-3.44,.21-5.03-.62-.5-.41-.88-.79-1.13-1.12-.17-.33-.29-.41-.38-.25-.59,1.17-1.38,2.24-2.39,3.24-1.93,1.83-3.31,2.24-4.15,1.25Zm.75-.12c.33,.42,1.3-.17,2.89-1.75,1.17-1,2.01-2.24,2.51-3.74,.17-.5,.25-.87,.25-1.12l-.13-.5-1.26,1.25c-1.51,1.33-2.68,2.62-3.52,3.87-.59,1.08-.84,1.75-.75,2Z"/>
      <path d="M312.03,50.77c-2.01,.58-3.35,.33-4.02-.75-.5-1,0-2.49,1.51-4.49,.5-.66,.71-1,.63-1-.34,.17-1.01,.25-2.01,.25l-1.76,.12-1.89,2c-1.76,2-2.6,3.16-2.51,3.49,.08,.25,0,.37-.25,.37l-.25-.25c-.17-.08-.29-.17-.38-.25-.17-.25-.21-.58-.13-1l.88-1.62c.5-.66,1.78-2.1,3.83-4.3,2.05-2.2,3.41-3.63,4.09-4.3,.92-.75,1.51-1,1.76-.75,.58,.42-.29,1.83-2.64,4.24l-2.01,1.87,1.38-.12c1.59-.08,2.72-.42,3.4-1,1.76-1.66,2.89-2.24,3.39-1.75,.42,.33,.21,.83-.63,1.5-.92,.75-1.95,1.73-3.08,2.93-1.13,1.21-1.87,2.1-2.2,2.68-.42,1.25-.15,1.87,.82,1.87s2.03-.29,3.21-.87c2.18-.83,5.41-2.74,9.68-5.74l2.39-1.62c.17-.08,.29-.08,.38,0,.08,.08,.08,.21,0,.37-.25,.33-2.26,1.79-6.04,4.36-2.93,2.08-5.45,3.33-7.54,3.74Z"/>
      <path d="M324.85,52.89c0-1.16,.92-2.99,2.77-5.49l.88-1.25-.13,.12c-.08,0-.23,.06-.44,.19-.21,.12-.4,.23-.57,.31-2.51,1.33-4.07,2-4.65,2-.34,0-.59-.08-.75-.25-.59-.83-.04-2.29,1.63-4.36,1.76-2.41,3.14-3.82,4.15-4.24l.38-.12c.33,0,.59,.25,.75,.75,.17,.25-.42,1-1.76,2.24-.67,.58-1.36,1.27-2.07,2.06-.71,.79-1.28,1.46-1.7,2-.42,.54-.59,.85-.5,.94,0,.08,.36-.02,1.07-.31,.71-.29,1.55-.69,2.51-1.18,.96-.5,1.78-.96,2.45-1.37,.75-.5,1.72-1.25,2.89-2.24,1.34-1.25,2.14-1.75,2.39-1.5,.25,.33,.29,.67,.13,1-.17,.33-.92,1.12-2.26,2.37-3.6,3.58-5.7,6.11-6.29,7.61-.75,1.91,.63,2.12,4.15,.62,4.44-1.91,10.06-5.36,16.85-10.35,.33-.17,.63-.12,.88,.12-2.43,2-5.41,4.03-8.93,6.11-4.27,2.74-7.5,4.49-9.68,5.24-2.77,1.08-4.15,.75-4.15-1Z"/>
      <path d="M349.49,52.14c-.34-.33-.46-.71-.38-1.12,.17-1.83,2.05-4.53,5.66-8.1l.75-.87h-.25c-.5,.25-.8,.42-.88,.5-4.44,3.66-7.46,5.28-9.05,4.86-1.17-.42-1.34-1.33-.5-2.74,.5-.66,.88-1.12,1.13-1.37l.38-.37c.84-.83,1.34-1,1.51-.5,.08,.17-.29,.79-1.13,1.87-1.09,1.25-1.51,2-1.26,2.24,.17,.17,.96-.12,2.39-.87,1.68-.75,3.27-1.75,4.78-2.99l1.01-.75-.5-.62c-1.26-1.16-.84-2.78,1.26-4.86,2.43-2.24,3.94-2.66,4.53-1.25,.25,.58,.08,1.41-.5,2.49-.25,.5-.92,1.5-2.01,2.99l-.38,.37,.38-.12c.17-.17,.48-.25,.94-.25s.77,.08,.94,.25c.17,.25-.46,1.04-1.89,2.37-3.27,3.24-5.37,5.78-6.29,7.61l-.38,.75,.5,.12c.25,0,1.01-.21,2.26-.62,.58-.25,1.68-.87,3.27-1.87,2.26-1.41,5.49-3.62,9.68-6.61,.33-.25,.75-.37,1.26-.37l.13,.12-.5,.5-9.3,6.48c-1.51,1-2.68,1.71-3.52,2.12-2.1,1.08-3.44,1.29-4.02,.62Zm4.15-10.97c.42,.17,1.05-.25,1.89-1.25,1.84-1.99,2.77-3.45,2.77-4.36,0-.17-.29-.17-.88,0-1.26,.67-2.35,1.66-3.27,2.99-.92,1.33-1.09,2.2-.5,2.62Z"/>
      <path d="M383.44,52.89c0-1.16,.92-2.99,2.77-5.49l.88-1.25-.13,.12c-.08,0-.23,.06-.44,.19-.21,.12-.4,.23-.57,.31-2.51,1.33-4.07,2-4.65,2-.34,0-.59-.08-.75-.25-.59-.83-.04-2.29,1.63-4.36,1.76-2.41,3.14-3.82,4.15-4.24l.38-.12c.33,0,.59,.25,.75,.75,.17,.25-.42,1-1.76,2.24-.67,.58-1.36,1.27-2.07,2.06-.71,.79-1.28,1.46-1.7,2-.42,.54-.59,.85-.5,.94,0,.08,.36-.02,1.07-.31,.71-.29,1.55-.69,2.51-1.18,.96-.5,1.78-.96,2.45-1.37,.75-.5,1.72-1.25,2.89-2.24,1.34-1.25,2.14-1.75,2.39-1.5,.25,.33,.29,.67,.13,1-.17,.33-.92,1.12-2.26,2.37-3.6,3.58-5.7,6.11-6.29,7.61-.75,1.91,.63,2.12,4.15,.62,4.44-1.91,10.06-5.36,16.85-10.35,.33-.17,.63-.12,.88,.12-2.43,2-5.41,4.03-8.93,6.11-4.27,2.74-7.5,4.49-9.68,5.24-2.77,1.08-4.15,.75-4.15-1Z"/>
      <path d="M72.12,102.75c-.25-.5-.04-1.26,.64-2.27,1.27-1.85,2.88-3.86,4.83-6.05l1.4-1.26c.59-.59,1.06-.96,1.4-1.13,.42-.25,.76-.25,1.02,0,.17,.42,.04,.8-.38,1.13-.09,.08-.25,.27-.51,.57-.25,.29-.59,.65-1.02,1.07-.42,.42-.76,.8-1.02,1.13-2.12,2.18-3.13,3.28-3.05,3.28s.55-.29,1.4-.88c.76-.59,1.86-1.28,3.3-2.08,1.44-.8,2.24-1.2,2.41-1.2,.59,0,.8,.25,.63,.76-.17,.42-.55,.97-1.14,1.64-2.12,2.52-2.33,3.86-.64,4.03,1.27,.08,3.18-.48,5.72-1.7,2.54-1.22,4.7-2.5,6.48-3.84,.34-.17,.64-.08,.89,.25-4.57,3.61-8.73,5.59-12.45,5.92-1.86,.17-2.75-.38-2.67-1.64,.08-.92,.72-2.1,1.91-3.53,.42-.59,.59-.88,.51-.88-.25-.25-1.91,.76-4.96,3.02-.34,.17-1.31,.97-2.92,2.39-1.02,1.01-1.61,1.43-1.78,1.26Z"/>
      <path d="M66.4,140.04c-.08,.17-.3,.08-.64-.25l-.38-.13,1.14-1.76,12.2-19.78c10.25-16.13,17.79-27.17,22.62-33.14,.59-.67,1.02-.96,1.27-.88,.25,0,.38,.04,.38,.13,0,.42-1.52,2.82-4.57,7.18l-3.05,4.28,.25,.38,.25,.5,2.29-1.26c2.2-1.09,3.81-1.72,4.83-1.89,.85,0,1.35,.25,1.52,.76,.34,.84-.42,2.48-2.29,4.91l-1.65,1.89c3.22,1.26,7.16,.59,11.82-2.02,1.44-.84,2.92-1.8,4.45-2.9,.17-.17,.32-.21,.44-.13,.13,.08,.15,.21,.06,.38l-.63,.63c-1.86,1.43-3.43,2.44-4.7,3.02-4.41,2.27-8.47,2.82-12.2,1.64l-1.14,1.26c-3.05,2.86-5.13,3.32-6.23,1.39-.42-.84-.42-1.93,0-3.28l.13-.63c-.17,.25-1.19,1.68-3.05,4.28-4.32,5.88-9.19,13.32-14.61,22.3-5.08,8.15-7.92,12.51-8.51,13.1Zm27.19-35.41c.68,.17,1.48-.13,2.41-.88,.25-.17,.61-.46,1.08-.88,.46-.42,.87-.8,1.21-1.13l.38-.63c-1.1-.59-2.08-1.51-2.92-2.77-.09-.25-.34-.21-.76,.13-.42,.34-.85,.97-1.27,1.89-.93,2.6-.97,4.03-.13,4.28Zm5.72-4.16c.08,0,.32-.21,.7-.63,.38-.42,.83-.94,1.33-1.57,.51-.63,.89-1.15,1.14-1.58,.51-.67,.85-1.26,1.02-1.76,.17-.42,.21-.67,.13-.76-.25-.25-1.65,.21-4.19,1.39-2.03,1.09-3.05,1.85-3.05,2.27,0,.25,.36,.76,1.08,1.51,.72,.76,1.33,1.13,1.84,1.13Z"/>
      <path d="M118.24,104.89c-.59-.33-.89-.96-.89-1.89s.17-1.81,.51-2.65l.25-.63-.76,.38c-.42,.34-.81,.59-1.14,.76-.17,.08-.47,.25-.89,.5-.42,.25-.76,.46-1.02,.63-.59,.34-1.12,.31-1.59-.06-.46-.38-.57-.94-.32-1.7,.34-.84,1.25-1.85,2.73-3.02,1.48-1.18,2.82-1.93,4-2.27,1.02-.25,1.74-.04,2.16,.63,.17,.25,.3,.34,.38,.25,.42-.17,.72-.08,.89,.25l-.13,.13c-.09,.17-.17,.31-.25,.44-.08,.13-.17,.27-.25,.44-1.7,1.68-2.79,3.19-3.3,4.54-.42,1.34-.38,2.23,.13,2.65,.76,.5,2.5,.21,5.21-.88,2.79-1.09,6.27-3.19,10.42-6.3,1.44-1.09,2.12-1.39,2.03-.88-.08,.34-1.25,1.3-3.49,2.9-2.25,1.6-4.21,2.86-5.91,3.78-1.1,.59-2.2,1.09-3.3,1.51-1.1,.42-2.14,.69-3.11,.82-.97,.13-1.76,.02-2.35-.32Zm-3.43-4.91c-.42,.5-.59,.76-.51,.76s.8-.38,2.16-1.13c2.88-1.59,4.32-2.81,4.32-3.65-.17-.5-.85-.33-2.03,.5-1.44,.92-2.75,2.1-3.94,3.53Z"/>
      <path d="M108.58,139.67c-1.27,.25-2.33,.08-3.18-.5-.76-.67-1.27-1.6-1.52-2.77-.25-1.85,.08-3.82,1.02-5.92,1.36-3.02,3.56-6.03,6.61-9.01,3.05-2.98,6.52-5.48,10.42-7.5,2.71-1.34,5.38-2.44,8-3.28,3.98-1.43,6.18-2.35,6.61-2.77,.17-.17,.32-.67,.45-1.51,.13-.84,.15-1.47,.06-1.89-.42-1.01-1.31-1.39-2.67-1.13-.76,0-1.4,.25-1.91,.76-.08,.08-.19,.11-.32,.06-.13-.04-.19-.1-.19-.19-.09-.08-.02-.23,.19-.44,.21-.21,.53-.4,.95-.57,.59-.33,1.14-.67,1.65-1.01,.76-.59,2.18-2.1,4.26-4.54,2.07-2.44,3.11-3.78,3.11-4.03h-.57c-.21,0-.85,.32-1.91,.95-1.06,.63-2.48,1.58-4.26,2.83-.34,.17-.53,.15-.57-.06-.04-.21,.11-.44,.44-.69,1.44-1.09,2.46-1.81,3.05-2.14,2.96-1.85,4.45-2.02,4.45-.5,0,.25-.38,.97-1.14,2.14-1.7,2.27-3.64,4.33-5.84,6.17l-.51,.5,.51,.13c1.69,.59,2.46,1.89,2.29,3.91v.76l2.54-1.26c1.44-.84,4.02-2.44,7.75-4.79l7.5-5.29,.38-.13c.25,0,.38,.13,.38,.38l-.13,.13-2.16,1.64-1.27,.88-6.61,4.41c-2.2,1.51-5.08,3.19-8.64,5.04l-.38,1.26c-.85,2.1-2.63,4.96-5.34,8.57-4.32,5.96-8.66,10.94-13.02,14.93-4.36,3.99-7.86,6.15-10.48,6.49Zm-.64-.63c1.52-.25,3.56-1.26,6.1-3.02,2.2-1.68,4.36-3.7,6.48-6.05,.85-.92,2.79-3.23,5.84-6.93l2.54-3.28,3.18-4.28c2.79-4.03,4.19-6.17,4.19-6.43l-5.97,2.14c-2.88,.92-5.84,2.23-8.89,3.91-4.66,2.61-8.68,5.88-12.07,9.83-1.78,2.1-3.11,4.26-4,6.49-.89,2.22-1.16,4.09-.83,5.61,.51,1.68,1.65,2.35,3.43,2.02Z"/>
      <path d="M117.6,148.74c-2.37,0-2.54-2.27-.51-6.8l1.02-1.89c4.41-8.32,10.93-16.34,19.57-24.07,3.47-3.02,8.68-6.47,15.63-10.33,1.1-.59,1.99-1.43,2.67-2.52l1.14-1.76-.51,.38-.25,.25c-1.02,.92-1.99,1.51-2.92,1.76-.93,.25-1.57,.08-1.91-.5-.68-1.26,.23-3.17,2.73-5.73,2.5-2.56,4.64-3.84,6.42-3.84,.68,0,1.06,.13,1.14,.38,.25,.17,.42,.21,.51,.13l1.78-2.14c1.44-1.85,2.37-2.94,2.79-3.28,.76-.76,1.27-1.13,1.53-1.13l.25,.25c0,.25-.34,.71-1.02,1.39-1.95,2.35-5.25,6.89-9.91,13.61l-.89,1.26c5.17-2.27,9.74-4.7,13.72-7.31l1.27-.88c.17-.17,.34-.08,.51,.25-.09,.17-.3,.38-.64,.63l-.51,.38c-1.95,1.43-6.95,4.12-14.99,8.06l-1.52,2.02c-6.44,9.24-13.64,18.61-21.6,28.1-7.45,8.9-12.62,13.36-15.5,13.36Zm-.38-.76c1.95,.17,5.38-2.44,10.29-7.81,7.54-8.32,15.59-18.6,24.14-30.87l2.29-3.15c-2.88,1.43-5.59,2.98-8.13,4.66-2.96,1.85-6.31,4.58-10.04,8.19-3.73,3.61-6.73,6.97-9.02,10.08-6.01,7.56-9.36,13.27-10.04,17.14-.25,1.18-.08,1.76,.51,1.76Zm35.7-44.86c.93,0,2.22-.78,3.88-2.33,1.65-1.55,2.94-3,3.88-4.35,.59-.84,.89-1.39,.89-1.64s-.13-.38-.38-.38c-1.52,0-3.73,1.68-6.61,5.04-2.12,2.44-2.67,3.65-1.65,3.65Z"/>
      <path d="M177.06,104.51c-2.03,.59-3.39,.34-4.07-.76-.51-1.01,0-2.52,1.52-4.54,.51-.67,.72-1.01,.64-1.01-.34,.17-1.02,.25-2.03,.25l-1.78,.13-1.91,2.02c-1.78,2.02-2.62,3.19-2.54,3.53,.08,.25,0,.38-.25,.38l-.25-.25c-.17-.08-.29-.17-.38-.25-.17-.25-.21-.59-.13-1.01l.89-1.64c.51-.67,1.8-2.12,3.88-4.35,2.07-2.22,3.45-3.67,4.13-4.35,.93-.76,1.52-1.01,1.78-.76,.59,.42-.3,1.85-2.67,4.28l-2.03,1.89,1.4-.13c1.61-.08,2.75-.42,3.43-1.01,1.78-1.68,2.92-2.27,3.43-1.76,.42,.34,.21,.84-.63,1.51-.93,.76-1.97,1.74-3.11,2.96-1.14,1.22-1.89,2.12-2.22,2.71-.42,1.26-.15,1.89,.83,1.89s2.05-.29,3.24-.88c2.2-.84,5.46-2.77,9.78-5.8l2.41-1.64c.17-.08,.3-.08,.38,0,.08,.08,.08,.21,0,.38-.25,.34-2.29,1.81-6.1,4.41-2.97,2.1-5.51,3.36-7.62,3.78Z"/>
      <path d="M190.02,106.65c0-1.18,.93-3.02,2.79-5.54l.89-1.26-.13,.13c-.09,0-.23,.06-.45,.19-.21,.13-.4,.23-.57,.32-2.54,1.34-4.11,2.02-4.7,2.02-.34,0-.59-.08-.76-.25-.59-.84-.04-2.31,1.65-4.41,1.78-2.44,3.18-3.86,4.19-4.28l.38-.13c.34,0,.59,.25,.76,.76,.17,.25-.42,1.01-1.78,2.27-.68,.59-1.38,1.28-2.1,2.08-.72,.8-1.29,1.47-1.72,2.02-.42,.55-.59,.86-.51,.95,0,.08,.36-.02,1.08-.32,.72-.29,1.57-.69,2.54-1.2,.97-.5,1.8-.96,2.48-1.39,.76-.5,1.74-1.26,2.92-2.27,1.35-1.26,2.16-1.76,2.41-1.51,.25,.34,.3,.67,.13,1.01-.17,.34-.93,1.13-2.29,2.39-3.64,3.61-5.76,6.17-6.35,7.69-.76,1.93,.63,2.14,4.19,.63,4.49-1.93,10.17-5.42,17.03-10.46,.34-.17,.63-.13,.89,.13-2.46,2.02-5.46,4.08-9.02,6.17-4.32,2.77-7.58,4.54-9.78,5.29-2.79,1.09-4.19,.76-4.19-1.01Z"/>
      <path d="M220.77,102.75c4.07-2.52,7.07-4.49,9.02-5.92l.51-.38c.25-.17,.46-.17,.64,0,.17,.17,.17,.29,0,.38-5.25,3.95-9.4,6.68-12.45,8.19-2.97,1.51-5.08,1.64-6.35,.38-1.19-1.01-.89-2.56,.89-4.66,.42-.59,1.1-1.34,2.03-2.27l.13-.13-.89,.5c-2.03,.93-3.3,1.13-3.81,.63-.59-.92-.38-1.97,.64-3.15,.42-.5,1.12-1.15,2.1-1.95,.97-.8,1.59-1.24,1.84-1.32,.34-.08,.64,.08,.89,.5,.17,.34-.34,.97-1.52,1.89-.59,.5-1.14,1.01-1.65,1.51-.51,.5-.89,.95-1.14,1.32-.25,.38-.34,.61-.25,.69,.34,.34,1.78-.21,4.32-1.64,1.27-.67,2.29-1.39,3.05-2.14,.93-.67,1.48-.88,1.65-.63,.42,.42-.09,1.18-1.52,2.27l-3.94,4.03c-1.86,1.85-2.63,3.19-2.29,4.03,.51,.76,1.61,.86,3.3,.32,1.69-.54,3.3-1.36,4.83-2.46Z"/>
      <path d="M236.27,104.51c-2.03,.59-3.39,.34-4.07-.76-.51-1.01,0-2.52,1.52-4.54,.51-.67,.72-1.01,.64-1.01-.34,.17-1.02,.25-2.03,.25l-1.78,.13-1.91,2.02c-1.78,2.02-2.62,3.19-2.54,3.53,.08,.25,0,.38-.25,.38l-.25-.25c-.17-.08-.29-.17-.38-.25-.17-.25-.21-.59-.13-1.01l.89-1.64c.51-.67,1.8-2.12,3.88-4.35,2.07-2.22,3.45-3.67,4.13-4.35,.93-.76,1.52-1.01,1.78-.76,.59,.42-.3,1.85-2.67,4.28l-2.03,1.89,1.4-.13c1.61-.08,2.75-.42,3.43-1.01,1.78-1.68,2.92-2.27,3.43-1.76,.42,.34,.21,.84-.63,1.51-.93,.76-1.97,1.74-3.11,2.96-1.14,1.22-1.89,2.12-2.22,2.71-.42,1.26-.15,1.89,.83,1.89s2.05-.29,3.24-.88c2.2-.84,5.46-2.77,9.78-5.8l2.41-1.64c.17-.08,.3-.08,.38,0,.08,.08,.08,.21,0,.38-.25,.34-2.29,1.81-6.1,4.41-2.97,2.1-5.51,3.36-7.62,3.78Z"/>
      <path d="M250.75,105.4c-1.36-1.34-.38-3.74,2.92-7.18l.13-.13c.42-.59,.59-.88,.51-.88-1.02,.34-2.25,.59-3.68,.76l-1.27,.13,.13,.63c.17,.59-.08,1.39-.76,2.39-.68,1.01-1.4,1.34-2.16,1.01-.85-.33-.64-1.51,.63-3.53,.93-1.51,2.71-3.44,5.34-5.8,.25-.25,.55-.29,.89-.13,.68,.25,.51,.88-.51,1.89l-3.05,3.02,1.53-.13c2.12-.17,3.77-.76,4.96-1.76,1.69-1.51,3.05-2.52,4.07-3.02,.76-.25,1.19-.21,1.27,.13,.08,.08-.04,.3-.38,.63-.34,.34-.97,.84-1.91,1.51-4.24,3.19-6.9,6.09-8,8.69-.42,1.01-.34,1.56,.25,1.64,.76-.17,1.23-.17,1.4,0,.17,.17,.72,.02,1.65-.44,.93-.46,1.57-.73,1.91-.82,.34-.08,1.04-.44,2.1-1.07,1.06-.63,1.78-1.05,2.16-1.26,.38-.21,1.1-.67,2.16-1.39,1.06-.71,1.78-1.2,2.16-1.45,.38-.25,1.08-.73,2.1-1.45,1.02-.71,1.65-1.15,1.91-1.32,.25,0,.42,.17,.51,.5-2.88,2.19-6.31,4.49-10.29,6.93-4.41,2.6-7.29,3.23-8.64,1.89Zm-3.56-3.91c.17,0,.46-.21,.89-.63,.42-.42,.68-.8,.76-1.13,.08-.25,.13-.54,.13-.88,0-.08-.19,.06-.57,.44s-.74,.82-1.08,1.32c-.34,.5-.51,.8-.51,.88h.38Z"/>
      <path d="M269.05,106.65c0-1.18,.93-3.02,2.79-5.54l.89-1.26-.13,.13c-.09,0-.23,.06-.45,.19-.21,.13-.4,.23-.57,.32-2.54,1.34-4.11,2.02-4.7,2.02-.34,0-.59-.08-.76-.25-.59-.84-.04-2.31,1.65-4.41,1.78-2.44,3.18-3.86,4.19-4.28l.38-.13c.34,0,.59,.25,.76,.76,.17,.25-.42,1.01-1.78,2.27-.68,.59-1.38,1.28-2.1,2.08-.72,.8-1.29,1.47-1.72,2.02-.42,.55-.59,.86-.51,.95,0,.08,.36-.02,1.08-.32,.72-.29,1.57-.69,2.54-1.2,.97-.5,1.8-.96,2.48-1.39,.76-.5,1.74-1.26,2.92-2.27,1.35-1.26,2.16-1.76,2.41-1.51,.25,.34,.3,.67,.13,1.01-.17,.34-.93,1.13-2.29,2.39-3.64,3.61-5.76,6.17-6.35,7.69-.76,2.02,.72,2.18,4.45,.5,4.49-2.02,10.17-5.5,17.03-10.46,.25-.08,.46,0,.63,.25-2.46,2.02-5.46,4.08-9.02,6.17-4.32,2.77-7.58,4.54-9.78,5.29-2.79,1.09-4.19,.76-4.19-1.01Zm8.13-16.51c-.76-.92-.85-1.68-.25-2.27,.25-.25,.49-.36,.7-.31,.21,.04,.4,.13,.57,.25,.17,.13,.21,.27,.13,.44-.34,.76-.34,1.3,0,1.64,.34,.34,.97,.46,1.91,.38,1.19-.17,1.78-.38,1.78-.63,0-.08,.04-.13,.13-.13,.17,0,.25,.13,.25,.38,0,.17-.04,.29-.13,.38-.51,.5-1.4,.76-2.67,.76-1.1,0-1.91-.29-2.41-.88Z"/>
      <path d="M303.48,103.88c-.34-.5-.34-1.17,0-2.02,.25-.84,1.14-2.1,2.67-3.78,.76-.92,1.52-1.59,2.29-2.02l1.27-.88c.42,0,.63-.13,.63-.38,0-.08,.21-.13,.64-.13,.34,0,.68,.08,1.02,.25l.76-1.26c2.2-4.11,3.6-7.52,4.19-10.21,1.02-4.37,1.44-8.19,1.27-11.47-.09-.59-.25-.88-.51-.88-.76,0-3.18,.8-7.24,2.39-.08,0-.21,.04-.38,.13l-.64,.25,.25,.13c.51,.25,.34,.5-.51,.76-.17,0-.34,.04-.51,.13-.85,.25-1.4,.25-1.65,0-.34-.17-.51-.38-.51-.63,0-.67,1.35-1.51,4.07-2.52,5.59-2.35,12.96-4.11,22.11-5.29,5.93-.67,10.29-.88,13.09-.63,3.22,.34,4.83,1.18,4.83,2.52-.08,.59-.55,1.18-1.4,1.76-.34,.25-.68,.25-1.02,0l-.38-.25,.76-.88c.51-.5,.76-.84,.76-1.01-.08-.76-2.97-1.01-8.64-.76-7.03,.5-13.43,1.47-19.19,2.9l-2.8,.63,.13,2.39c0,2.77-.17,5.29-.51,7.56-.68,3.78-1.19,6.13-1.52,7.06-.85,2.27-1.86,4.41-3.05,6.43-2.37,4.2-4.36,6.97-5.97,8.32-1.95,1.85-3.39,2.31-4.32,1.39Zm.89-.25c.42,.25,1.4-.38,2.92-1.89,1.53-1.59,2.37-2.81,2.54-3.65,.34-.5,.42-.96,.25-1.39v-.38l-1.27,1.26c-1.44,1.18-2.67,2.52-3.68,4.03-.68,1.01-.93,1.68-.76,2.02Z"/>
      <path d="M319.87,104.89c-.59-.33-.89-.96-.89-1.89s.17-1.81,.51-2.65l.25-.63-.76,.38c-.42,.34-.81,.59-1.14,.76-.17,.08-.47,.25-.89,.5-.42,.25-.76,.46-1.02,.63-.59,.34-1.12,.31-1.59-.06-.46-.38-.57-.94-.32-1.7,.34-.84,1.25-1.85,2.73-3.02,1.48-1.18,2.82-1.93,4-2.27,1.02-.25,1.74-.04,2.16,.63,.17,.25,.3,.34,.38,.25,.42-.17,.72-.08,.89,.25l-.13,.13c-.09,.17-.17,.31-.25,.44-.08,.13-.17,.27-.25,.44-1.7,1.68-2.79,3.19-3.3,4.54-.42,1.34-.38,2.23,.13,2.65,.76,.5,2.5,.21,5.21-.88,2.79-1.09,6.27-3.19,10.42-6.3,1.44-1.09,2.12-1.39,2.03-.88-.08,.34-1.25,1.3-3.49,2.9-2.25,1.6-4.21,2.86-5.91,3.78-1.1,.59-2.2,1.09-3.3,1.51-1.1,.42-2.14,.69-3.11,.82-.97,.13-1.76,.02-2.35-.32Zm-3.43-4.91c-.42,.5-.59,.76-.51,.76s.8-.38,2.16-1.13c2.88-1.59,4.32-2.81,4.32-3.65-.17-.5-.85-.33-2.03,.5-1.44,.92-2.75,2.1-3.94,3.53Z"/>
      <path d="M342.99,104.51c-2.03,.59-3.39,.34-4.07-.76-.51-1.01,0-2.52,1.52-4.54,.51-.67,.72-1.01,.64-1.01-.34,.17-1.02,.25-2.03,.25l-1.78,.13-1.91,2.02c-1.78,2.02-2.62,3.19-2.54,3.53,.08,.25,0,.38-.25,.38l-.25-.25c-.17-.08-.29-.17-.38-.25-.17-.25-.21-.59-.13-1.01l.89-1.64c.51-.67,1.8-2.12,3.88-4.35,2.07-2.22,3.45-3.67,4.13-4.35,.93-.76,1.52-1.01,1.78-.76,.59,.42-.3,1.85-2.67,4.28l-2.03,1.89,1.4-.13c1.61-.08,2.75-.42,3.43-1.01,1.78-1.68,2.92-2.27,3.43-1.76,.42,.34,.21,.84-.63,1.51-.93,.76-1.97,1.74-3.11,2.96-1.14,1.22-1.89,2.12-2.22,2.71-.42,1.26-.15,1.89,.83,1.89s2.05-.29,3.24-.88c2.2-.84,5.46-2.77,9.78-5.8l2.41-1.64c.17-.08,.3-.08,.38,0,.08,.08,.08,.21,0,.38-.25,.34-2.29,1.81-6.1,4.41-2.97,2.1-5.51,3.36-7.62,3.78Z"/>
      <path d="M360.02,104.39c-1.78-.59-2.08-2.77-.89-6.55l.25-1.01c-.17-.17-.72,.13-1.65,.88-.68,.5-1.57,1.28-2.67,2.33-1.1,1.05-1.74,1.74-1.91,2.08-.25,.42-.38,.71-.38,.88,0,.34-.17,.34-.51,0-.68-.67,.3-2.77,2.92-6.3,1.19-1.59,2.37-2.9,3.56-3.91,.68-.59,1.19-.67,1.52-.25,.25,.34-.17,1.09-1.27,2.27-1.1,1.01-1.95,1.98-2.54,2.9,.17-.08,.34-.21,.51-.38,3.3-2.77,6.61-4.75,9.91-5.92,.93-.33,1.65-.38,2.16-.13,.51,.25,.72,.71,.63,1.39-.08,.5-.57,1.41-1.46,2.71-.89,1.3-1.63,2.21-2.22,2.71-.59,.59-1.02,.76-1.27,.5-.08-.08,.04-.25,.38-.5,.42-.33,1.27-1.39,2.54-3.15,.85-1.51,1.27-2.44,1.27-2.77,0-.76-1.7-.25-5.08,1.51-.08,.08-.21,.17-.38,.25-2.12,1.18-3.35,1.93-3.68,2.27,0,.17,.04,.29,.13,.38,.25,.25,.17,.97-.25,2.14-.17,.67-.25,1.51-.25,2.52-.09,1.76,.46,2.65,1.65,2.65,1.69,0,4.28-1.17,7.75-3.53,.68-.42,1.95-1.39,3.81-2.9l1.78-1.26,.38-.25c.17-.08,.3-.08,.38,0v.5l-1.02,.76c-4.15,3.19-7.24,5.29-9.28,6.3-2.03,1.01-3.64,1.3-4.83,.88Z"/>
      <path d="M371.2,102.87c-1.1-1.09-1.02-2.52,.25-4.28,.93-1.59,2.29-2.77,4.07-3.53,1.02-.42,1.74-.42,2.16,0,.34,.25,.4,.67,.19,1.26-.21,.59-.62,1.09-1.21,1.51-1.19,.84-2.41,1.34-3.68,1.51-.34,0-.64,.21-.89,.63-1.02,1.76-.55,2.77,1.4,3.02,3.81,0,8.55-1.97,14.23-5.92l1.52-1.01c.08-.08,.21-.08,.38,0,.17,.08,.21,.21,.13,.38-3.13,2.52-6.69,4.54-10.67,6.05-3.98,1.51-6.61,1.64-7.88,.38Zm1.91-4.28c.59,0,1.44-.33,2.54-1.01,.76-.5,1.27-1.05,1.52-1.64,.08-.25,0-.38-.25-.38l-1.4,.76c-1.7,1.26-2.5,2.02-2.41,2.27Z"/>
      <path d="M404.74,104.64c1.35,.25,5.46-2.27,12.32-7.56,.93-.76,1.61-1.22,2.03-1.39,.17-.08,.3-.06,.38,.06,.08,.13,.08,.23,0,.32-.17,.17-.89,.76-2.16,1.76-.68,.5-1.5,1.11-2.48,1.83-.97,.71-1.74,1.28-2.29,1.7-.55,.42-1.19,.88-1.91,1.39-.72,.5-1.29,.88-1.72,1.13-.42,.25-.91,.53-1.46,.82-.55,.29-1,.46-1.33,.5-.34,.04-.72,.08-1.14,.13-.42,.04-.78-.02-1.08-.19-.3-.17-.62-.42-.95-.76-.85-.84-1.1-2.27-.76-4.28,.08-.25,.21-.63,.38-1.13,.17-.5,.27-.86,.32-1.07,.04-.21,.02-.4-.06-.57-.68,.5-1.36,1.05-2.03,1.64-2.63,2.19-3.94,3.65-3.94,4.41,0,.17-.08,.25-.25,.25-.51,0-.68-.21-.51-.63,.17-.5,1.27-2.31,3.3-5.42,1.86-2.85,2.88-4.58,3.05-5.17,.08-.42,.04-.67-.13-.76-.17-.08-.55-.04-1.14,.13-3.22,.67-7.03,2.82-11.44,6.43-.42,.34-1.04,.9-1.84,1.7-.81,.8-1.53,1.51-2.16,2.14-.64,.63-.95,.99-.95,1.07l-.13,.25c-.08,.08-.23,.06-.44-.06-.21-.13-.32-.23-.32-.32,0-.5,1.4-2.39,4.19-5.67,1.02-1.18,1.86-2.1,2.54-2.77,.85-.84,1.44-1.17,1.78-1.01,.08,.08,.13,.21,.13,.38,0,.42-.55,1.18-1.65,2.27l-.25,.25c.17-.08,.59-.38,1.27-.88,3.73-3.02,6.94-4.54,9.66-4.54,.76,0,1.35,.15,1.78,.44,.42,.3,.59,.74,.51,1.32-.08,.67-.72,1.81-1.91,3.4-.42,.5-.81,1.01-1.14,1.51l-.13,.13c.17-.08,.3-.17,.38-.25,.85-.59,1.44-.88,1.78-.88,.25,0,.45,.04,.57,.13,.13,.08,.19,.21,.19,.38v.44c0,.13-.06,.34-.19,.63-.13,.29-.19,.53-.19,.69-.85,3.53-.34,5.42,1.52,5.67Z"/>
    </g>
  </g>
</svg>