<?xml version="1.0" encoding="UTF-8"?>
<svg id="_Слой_2" data-name="Слой 2" xmlns="http://www.w3.org/2000/svg" viewBox="0 0 100.69 65.03">
  <g id="_Слой_1-2" data-name="Слой 1">
    <g>
      <path d="M33.01,64.95c-3.3-.59-6.23-1.71-8.77-3.35-2.55-1.63-5.48-4.54-8.77-8.7-.75-1.04-1.35-1.49-1.8-1.34-1.95,.89-4.65,1.56-8.1,2.01-1.95,0-3.45-.37-4.5-1.12-1.2-1.04-1.38-2.19-.56-3.46,.83-1.26,2.36-2.04,4.61-2.34,2.55-.45,4.8-.07,6.75,1.12l2.02,1.12,2.25-1.12c3.9-1.79,8.4-5.13,13.5-10.04,11.55-10.56,19.05-20.3,22.5-29.23,1.35-3.87,1.42-6.02,.22-6.47-1.35-.3-3.15-.07-5.4,.67-3.3,1.04-6.83,2.83-10.57,5.35-3.75,2.53-6.68,5.21-8.77,8.03-2.4,3.12-4.24,6.55-5.51,10.26-1.28,3.72-1.54,6.77-.79,9.15,.3,1.04,.6,1.56,.9,1.56,.15,.3,.52,.45,1.12,.45s1.05-.15,1.35-.45h.67c.3,.15,.07,.37-.67,.67-.3,.15-.67,.3-1.12,.45-1.05,.15-1.88-.22-2.47-1.12-.6-.89-1.05-2.3-1.35-4.24-.45-6.25,2.1-12.64,7.65-19.19C32.64,7.69,38.86,3.45,46.06,.92c4.2-1.34,7.2-.82,9,1.56,.45,.89,.68,1.86,.68,2.9,0,6.69-5.62,15.99-16.87,27.89-8.1,8.48-15.15,14.05-21.15,16.73l-1.8,.89,2.25,2.9c.45,.6,1.05,1.38,1.8,2.34,.75,.97,1.2,1.53,1.35,1.67,1.65,1.64,4.27,3.27,7.87,4.91,3.6,1.34,7.12,1.19,10.57-.45,1.05-.59,1.65-.82,1.8-.67,.3,.3,.45,.52,.45,.67,0,.6-1.73,1.42-5.17,2.46-1.05,.3-2.33,.37-3.82,.22ZM2.87,51.56c.75,.3,2.92-.15,6.52-1.34,1.65-.45,2.47-.74,2.47-.89,.15-.15-.15-.37-.9-.67-1.5-.59-3.22-.63-5.17-.11-1.95,.52-3.15,1.3-3.6,2.34,0,.45,.22,.67,.67,.67Z"/>
      <path d="M51.01,58.48c-1.05-1.78,0-4.98,3.15-9.59,3.15-4.76,9.37-12.72,18.67-23.87l1.57-2.23c-12.3,4.76-19.8,7.81-22.5,9.15-2.4,1.34-3.9,2.6-4.5,3.79-.3,.75-.52,.89-.67,.45-.45-1.49,1.05-3.2,4.5-5.13,1.05-.59,6.37-2.82,15.97-6.69l6.97-2.68c1.65-.74,3.45-2.23,5.4-4.46C88.58,6.65,94.2,1,96.45,.25c1.05-.45,2.1-.3,3.15,.45,1.95,1.34,1.27,3.94-2.02,7.81-2.25,2.68-6.9,5.95-13.95,9.82-1.5,.89-2.85,2.01-4.05,3.35-7.05,7.73-13.58,15.54-19.57,23.43-4.95,6.1-7.5,10.26-7.65,12.49,0,1.49-.45,1.78-1.35,.89ZM84.08,16.76l.68-.22c.45-.3,1.09-.7,1.91-1.23,.82-.52,1.54-.96,2.14-1.34,.6-.37,1.42-.85,2.47-1.45l1.35-.89c2.7-2.38,4.42-4.24,5.17-5.58,1.2-2.08,1.65-3.49,1.35-4.24,0-.3-.15-.45-.45-.45-.75,0-1.95,.82-3.6,2.45-1.05,1.04-3.19,3.42-6.41,7.14-3.23,3.72-4.76,5.65-4.61,5.8Z"/>
    </g>
  </g>
</svg>