<?xml version="1.0" encoding="utf-8"?>
<!-- Generator: Adobe Illustrator 26.0.1, SVG Export Plug-In . SVG Version: 6.00 Build 0)  -->
<svg version="1.1" id="Layer_1" xmlns="http://www.w3.org/2000/svg" xmlns:xlink="http://www.w3.org/1999/xlink" x="0px" y="0px"
	 viewBox="0 0 262 217.6" style="enable-background:new 0 0 262 217.6;" xml:space="preserve">
<style type="text/css">
	.st0{enable-background:new    ;}
	.st1{fill:#010101;}
</style>
<g class="st0">
	<path class="st1" d="M12.1,94.1c-5-2.8-5.8-9.5-2.5-20c2.3-7.9,6.7-15.6,13.1-23.1c6.5-7.5,12.9-12.9,19.2-16.1
		c3-1.6,5.9-2.5,8.8-2.9c2.2-0.2,4.2-0.1,6.2,0.3c2.1,0.5,3.9,1.5,5.5,3.1l0.7,0.7l0.1-0.7c0.2-1.6,1.3-3.4,3.2-5.6
		c1.5-1.7,3.1-2.7,4.8-3.1c0.2-0.1,0.6-0.1,1.2,0c0.6,0.1,1.1,0.2,1.3,0.3c0.7,0.5,0.9,1.3,0.6,2.5c-0.2,0.6-0.8,1.3-1.8,2.1
		c-1,0.8-1.6,1.1-1.9,0.8c-0.1-0.1,0-0.2,0.3-0.4c1.3-1,2.2-1.9,2.5-2.5c0.7-1.4,0.5-2-0.6-1.9c-0.7,0.1-1.6,0.6-2.8,1.4
		c-2.2,1.4-3.8,3.2-4.9,5.4c-0.8,1.3-1.1,2.5-1.1,3.6c0.1,0.3,0.1,0.5,0,0.6c-0.3,0.2-0.5,0-0.7-0.6c-0.1-0.1-0.1-0.2-0.1-0.3
		c-0.3-0.9-1-1.8-2.2-2.6c-1.2-0.8-2.4-1.3-3.7-1.5c-1.9-0.5-3.5-0.5-4.8,0c-2,0.6-3.3,1.1-3.9,1.4c-3,1.5-5.1,2.6-6.2,3.5
		c-4,2.6-8,5.8-11.8,9.6c-4.9,4.7-9.6,10.9-14.3,18.5C6.9,82.1,6.4,91.3,15,94.1c3.2,1,8.1-0.5,14.8-4.5c6.7-4,15.3-9.8,25.8-17.5
		c1.3-1,2.3-1.8,2.9-2.2c0.7-0.6,1.2-0.7,1.4-0.3c0.1,0.1-0.7,0.7-2.2,1.9c-1.6,1.2-3.7,2.7-6.5,4.7C39,84.8,30.9,90.2,27,92.3
		C20.5,95.4,15.6,96,12.1,94.1z"/>
	<path class="st1" d="M59.8,83.1c-1.8,1.3-3.3,1.9-4.7,1.9c-1.4,0-2.1-0.8-2.2-2.3c0-0.5-0.2-0.9-0.6-1.3c-0.3-0.2-0.4-0.5-0.4-1
		c0.1-1.6,2.8-5.8,8-12.8l2.9-3.9c0.6-0.7,1.5-1.9,2.8-3.3c3.3-4.1,7-8,11.2-11.7c2.8-2.4,5.3-4.2,7.4-5.3c0.5-0.3,1-0.2,1.5,0.1
		c0.4,0.3,0.4,0.6,0,1.1c-0.4,0.5-1.5,1.7-3.5,3.8c-5.3,5.1-9.4,8.7-12.2,10.8c-2.3,1.8-4.1,3.4-5.3,4.9l-4.2,5.3
		c-1.4,1.8-2.1,2.9-2.1,3.3l0.1,0.7l1-0.7c2.2-1.7,4-2.4,5.6-2.2c1.8,0.2,2.5,1.1,2.2,2.6c-0.2,1.1-0.8,2.4-1.7,3.8l-0.6,0.8
		c2.8,0,7.9-2.8,15.2-8.3c0.4-0.3,0.7-0.2,0.8,0.1c-1.5,1.5-4.3,3.5-8.3,6c-1.1,0.6-2.5,1.3-4.1,1.9c-1.3,0.6-2.3,0.9-3.1,1
		l-1.3,0.1l-1,1.1C62,81.4,60.7,82.5,59.8,83.1z M54.4,83.9c0.6,0.7,2,0.2,4.4-1.7c2.2-1.8,3.4-3,3.8-3.8c-0.3,0-0.9-0.3-2-1
		c-1-0.7-1.7-1.4-2.1-2.2l-1.1,1c-1.1,1-2,2.1-2.5,3.2C53.7,81.6,53.5,83.1,54.4,83.9z M56.8,75c0.1,0.1,0.3,0,0.7-0.4
		c0.4-0.4,0.6-0.6,0.6-0.7l-0.1-0.4c-0.1-0.1-0.2-0.1-0.3,0c-0.1,0.1-0.2,0.3-0.4,0.7L56.8,75z M61.7,77.4c0.7,0.4,1.2,0.5,1.3,0.5
		c0.1,0,0.4-0.3,0.8-0.9c1.8-2.1,2.6-3.8,2.4-5c-0.2-0.3-0.4-0.4-0.7-0.4c-0.4,0-1.4,0.4-3.1,1.1c-2.2,1.1-3.2,1.9-3.2,2.2
		C59.4,76,60.3,76.8,61.7,77.4z M70.4,58.1l1.3-1c3.1-2.2,6.7-5.6,10.8-10l1.1-1.3c-0.3,0-2,1.4-5.1,4.2c-2.2,1.9-4.4,4.1-6.6,6.4
		L70.4,58.1z"/>
	<path class="st1" d="M98.8,69.3c0.4-0.1,0.6,0,0.7,0.3l-0.6,0.6l-2.5,1.9l-3.7,2.5l-4.1,2.6c-0.3,0.1-0.9,0.4-1.8,1
		c-0.9,0.6-1.6,1-2.2,1.3c-1.5,0.8-2.8,1.3-4,1.5c-1.2,0.1-2,0-2.6-0.6c-0.6-0.5-0.7-1.3-0.4-2.3c0.3-1.1,1.1-2.5,2.5-4
		c1.1-1.1,2.8-2.5,4.9-4c1.6-1,2.5-1.8,2.7-2.4c0.1-0.4-0.1-0.5-0.7-0.4c-1.8,0.3-3.8,1.2-6,2.8c-0.1,0-0.4,0.2-0.8,0.6
		c-0.4,0.4-0.8,0.6-1.2,0.8l-0.6,0.3c-0.3-0.3-0.4-0.5-0.3-0.6c1.4-1.1,2.6-2,3.7-2.6c1.5-1,2.9-1.6,4.2-1.9
		c1.3-0.2,2.2,0.1,2.5,0.9c0.4,0.7-0.8,2.2-3.5,4.3c-4.3,3.3-6.5,5.8-6.5,7.4c0,0.6,0.2,0.9,0.6,1.1c0.4,0.2,1,0.1,1.9-0.2
		c0.9-0.3,1.7-0.6,2.3-1c0.7-0.3,1.6-0.8,2.8-1.5l2.4-1.4c0.9-0.6,2.3-1.5,4.2-2.8l4.1-2.9C98,69.7,98.7,69.3,98.8,69.3z"/>
	<path class="st1" d="M94.8,77c-1.2-1.2-1.1-2.8,0.3-4.7c1-1.8,2.5-3.1,4.5-3.9c1.1-0.5,1.9-0.5,2.4,0c0.4,0.3,0.4,0.7,0.2,1.4
		c-0.2,0.6-0.7,1.2-1.3,1.7c-1.3,0.9-2.7,1.5-4.1,1.7c-0.4,0-0.7,0.2-1,0.7c-1.1,1.9-0.6,3.1,1.5,3.3c4.2,0,9.5-2.2,15.7-6.5
		l1.7-1.1c0.1-0.1,0.2-0.1,0.4,0c0.2,0.1,0.2,0.2,0.1,0.4c-3.5,2.8-7.4,5-11.8,6.7C99.1,78.2,96.2,78.4,94.8,77z M96.9,72.2
		c0.7,0,1.6-0.4,2.8-1.1c0.8-0.6,1.4-1.2,1.7-1.8c0.1-0.3,0-0.4-0.3-0.4l-1.5,0.8C97.7,71.1,96.8,72,96.9,72.2z"/>
	<path class="st1" d="M120.9,78.8c-2.2,0.6-3.7,0.4-4.5-0.8c-0.6-1.1,0-2.8,1.7-5c0.6-0.7,0.8-1.1,0.7-1.1c-0.4,0.2-1.1,0.3-2.2,0.3
		l-2,0.1l-2.1,2.2c-2,2.2-2.9,3.5-2.8,3.9c0.1,0.3,0,0.4-0.3,0.4l-0.3-0.3c-0.2-0.1-0.3-0.2-0.4-0.3c-0.2-0.3-0.2-0.6-0.1-1.1l1-1.8
		c0.6-0.7,2-2.3,4.3-4.8c2.3-2.5,3.8-4.1,4.6-4.8c1-0.8,1.7-1.1,2-0.8c0.7,0.5-0.3,2-2.9,4.7l-2.2,2.1l1.5-0.1
		c1.8-0.1,3-0.5,3.8-1.1c2-1.9,3.2-2.5,3.8-1.9c0.5,0.4,0.2,0.9-0.7,1.7c-1,0.8-2.2,1.9-3.4,3.3c-1.3,1.3-2.1,2.3-2.5,3
		c-0.5,1.4-0.2,2.1,0.9,2.1c1.1,0,2.3-0.3,3.6-1c2.4-0.9,6-3.1,10.8-6.4l2.7-1.8c0.2-0.1,0.3-0.1,0.4,0c0.1,0.1,0.1,0.2,0,0.4
		c-0.3,0.4-2.5,2-6.7,4.9C126.1,76.9,123.3,78.3,120.9,78.8z"/>
	<path class="st1" d="M135.3,81.1c0-1.3,1-3.3,3.1-6.1l1-1.4l-0.1,0.1c-0.1,0-0.3,0.1-0.5,0.2c-0.2,0.1-0.4,0.3-0.6,0.3
		c-2.8,1.5-4.5,2.2-5.2,2.2c-0.4,0-0.7-0.1-0.8-0.3c-0.7-0.9,0-2.5,1.8-4.9c2-2.7,3.5-4.3,4.6-4.7l0.4-0.1c0.4,0,0.7,0.3,0.8,0.8
		c0.2,0.3-0.5,1.1-2,2.5c-0.8,0.6-1.5,1.4-2.3,2.3c-0.8,0.9-1.4,1.6-1.9,2.2c-0.5,0.6-0.7,1-0.6,1c0,0.1,0.4,0,1.2-0.3
		c0.8-0.3,1.7-0.8,2.8-1.3c1.1-0.6,2-1.1,2.7-1.5c0.8-0.6,1.9-1.4,3.2-2.5c1.5-1.4,2.4-1.9,2.7-1.7c0.3,0.4,0.3,0.7,0.1,1.1
		c-0.2,0.4-1,1.3-2.5,2.6c-4,4-6.4,6.8-7,8.5c-0.8,2.1,0.7,2.4,4.6,0.7c5-2.1,11.2-6,18.8-11.5c0.4-0.2,0.7-0.1,1,0.1
		c-2.7,2.2-6,4.5-10,6.8c-4.8,3.1-8.4,5-10.8,5.8C136.8,83.5,135.3,83.1,135.3,81.1z"/>
	<path class="st1" d="M159.6,81.1c0-1.3,1-3.3,3.1-6.1l1-1.4l-0.1,0.1c-0.1,0-0.3,0.1-0.5,0.2c-0.2,0.1-0.4,0.3-0.6,0.3
		c-2.8,1.5-4.5,2.2-5.2,2.2c-0.4,0-0.7-0.1-0.8-0.3c-0.7-0.9,0-2.5,1.8-4.9c2-2.7,3.5-4.3,4.6-4.7l0.4-0.1c0.4,0,0.7,0.3,0.8,0.8
		c0.2,0.3-0.5,1.1-2,2.5c-0.8,0.6-1.5,1.4-2.3,2.3c-0.8,0.9-1.4,1.6-1.9,2.2c-0.5,0.6-0.7,1-0.6,1c0,0.1,0.4,0,1.2-0.3
		c0.8-0.3,1.7-0.8,2.8-1.3c1.1-0.6,2-1.1,2.7-1.5c0.8-0.6,1.9-1.4,3.2-2.5c1.5-1.4,2.4-1.9,2.7-1.7c0.3,0.4,0.3,0.7,0.1,1.1
		c-0.2,0.4-1,1.3-2.5,2.6c-4,4-6.4,6.8-7,8.5c-0.8,2.2,0.8,2.4,4.9,0.6c5-2.2,11.2-6.1,18.8-11.5c0.3-0.1,0.5,0,0.7,0.3
		c-2.7,2.2-6,4.5-10,6.8c-4.8,3.1-8.4,5-10.8,5.8C161.1,83.5,159.6,83.1,159.6,81.1z M168.5,62.9c-0.8-1-0.9-1.9-0.3-2.5
		c0.3-0.3,0.5-0.4,0.8-0.3c0.2,0,0.4,0.1,0.6,0.3c0.2,0.1,0.2,0.3,0.1,0.5c-0.4,0.8-0.4,1.4,0,1.8c0.4,0.4,1.1,0.5,2.1,0.4
		c1.3-0.2,2-0.4,2-0.7c0-0.1,0-0.1,0.1-0.1c0.2,0,0.3,0.1,0.3,0.4c0,0.2,0,0.3-0.1,0.4c-0.6,0.6-1.5,0.8-2.9,0.8
		C170,63.9,169.1,63.6,168.5,62.9z"/>
</g>
<g class="st0">
	<path class="st1" d="M140.4,170.6c-3.2,0-5.7-0.3-7.6-1c-3.6-1.4-5.4-3.6-5.6-6.5c0-1.5,0.4-3,1.1-4.6c1.5-2.9,4.2-5.4,8.1-7.7
		c3.9-2.3,8.2-3.8,13-4.5c1.3-0.2,2-0.3,2.1-0.4l3.5-4.6c14.4-18.4,25.7-31.5,33.8-39.2c2.4-2.4,3.8-3.6,4.2-3.5c0.7,0,1,0.3,1,1
		c0,0.1-0.5,0.7-1.4,1.8l-9.1,9.9l-0.6,0.4l0.6-0.1l6-2.8c7.6-4.2,11.7-7.7,12.5-10.6c0.1-0.4,0-0.7-0.3-1c-0.2-0.3-0.8-0.4-2-0.4
		c-2.7-0.2-6.2,0.7-10.5,2.8c-3.2,1.4-5.6,2.9-7.3,4.6l-1.3,1c-0.2-0.3,0.2-0.9,1.2-1.9c1-1,2.2-1.9,3.7-2.9c3.7-2.2,7.3-3.7,11-4.4
		c2.2-0.5,3.8-0.4,4.9,0.3c1,0.5,1.5,1.2,1.5,2.1c-0.2,2.9-3.8,6.3-11,10.3c-2.3,1.3-5.2,2.7-8.7,4.3l-1.3,0.4l0.7,0.1
		c5.7,1.1,9.2,3.7,10.4,7.6c0.3,0.8,0.4,2.2,0.3,4c0,1.9-0.2,3.5-0.7,4.9c-0.4,1.2-0.9,2.7-1.5,4.4c-1.4,3.2-3.1,6.4-5.2,9.5
		l-1.3,1.9c0.2,0.1,0.7,0.1,1.6,0.1c0.9,0,2-0.2,3.4-0.4c1.4-0.2,2.5-0.4,3.4-0.6c2.7-0.6,5.1-1.8,7-3.3c0.4-0.3,0.7-0.4,1-0.4
		c0.5,0,0.5,0.2,0.1,0.6c-2.5,1.9-4.5,3-6,3.5c-3.1,0.9-6.3,1.5-9.7,1.8c-1.2,0.1-2,0.4-2.4,1c-0.1,0.1-0.2,0.3-0.4,0.6
		c-8.9,11.1-20,18.1-33.4,21C145.9,170.3,142.9,170.6,140.4,170.6z M132.2,168.5c4.2,1.8,10,1.7,17.4-0.1
		c9.9-2.5,18.7-7.4,26.4-14.7c3.9-3.9,5.8-6,5.6-6.3l-2.7,0.1c-2.4,0-4.9-0.1-7.4-0.3c-11.2-0.8-17.2-1-18-0.4
		c-0.1,0.1-0.5,0.6-1.3,1.7c-0.8,1-1.8,2.3-2.9,3.8c-1.1,1.5-2.1,2.7-2.8,3.8c-3.6,4.8-5.8,7.9-6.6,9.2c-0.4,0.8-0.8,1-1.3,0.6
		c-0.6-0.7,0.8-3.6,4.2-8.5l5.1-6.8l2.2-3.2l-1.8,0.3c-3.4,0.6-6.6,1.8-9.8,3.5c-3.1,1.7-5.6,3.5-7.4,5.6c-3.4,4-4.1,7.2-2.1,9.7
		C129.8,167.3,130.8,168.1,132.2,168.5z M180.8,146.3c1-0.1,1.7-0.2,2-0.4c0.3-0.2,0.9-1,1.8-2.4c6-9.1,8.6-16.3,7.9-21.6
		c-0.7-4-3.6-6.4-8.7-7.4c-0.8-0.4-1.5-0.5-2.2-0.3c-0.7,0.2-1.2,0.4-1.4,0.6c-0.2,0.2-1,1-2.2,2.4L167.3,130
		c-8.5,10.4-12.8,15.6-12.8,15.7l2.7-0.1c3.2,0,6.1,0.1,8.8,0.3C173.6,146.2,178.5,146.4,180.8,146.3z"/>
	<path class="st1" d="M196.6,149.1c-1.2-1.2-1.1-2.8,0.3-4.7c1-1.8,2.5-3.1,4.5-3.9c1.1-0.5,1.9-0.5,2.4,0c0.4,0.3,0.4,0.7,0.2,1.4
		c-0.2,0.6-0.7,1.2-1.3,1.7c-1.3,0.9-2.7,1.5-4.1,1.7c-0.4,0-0.7,0.2-1,0.7c-1.1,1.9-0.6,3.1,1.5,3.3c4.2,0,9.5-2.2,15.7-6.5
		l1.7-1.1c0.1-0.1,0.2-0.1,0.4,0c0.2,0.1,0.2,0.2,0.1,0.4c-3.5,2.8-7.4,5-11.8,6.7C200.9,150.3,198,150.5,196.6,149.1z M198.7,144.3
		c0.7,0,1.6-0.4,2.8-1.1c0.8-0.6,1.4-1.2,1.7-1.8c0.1-0.3,0-0.4-0.3-0.4l-1.5,0.8C199.5,143.2,198.6,144.1,198.7,144.3z"/>
	<path class="st1" d="M174.4,199.7c-2.6,0-2.8-2.5-0.6-7.5l1.1-2.1c4.9-9.2,12.1-18,21.6-26.6c3.8-3.3,9.6-7.1,17.3-11.4
		c1.2-0.6,2.2-1.6,2.9-2.8l1.3-1.9l-0.6,0.4l-0.3,0.3c-1.1,1-2.2,1.7-3.2,1.9c-1,0.3-1.7,0.1-2.1-0.6c-0.7-1.4,0.3-3.5,3-6.3
		c2.8-2.8,5.1-4.2,7.1-4.2c0.7,0,1.2,0.1,1.3,0.4c0.3,0.2,0.5,0.2,0.6,0.1l2-2.4c1.6-2,2.6-3.2,3.1-3.6c0.8-0.8,1.4-1.3,1.7-1.3
		l0.3,0.3c0,0.3-0.4,0.8-1.1,1.5c-2.2,2.6-5.8,7.6-11,15l-1,1.4c5.7-2.5,10.8-5.2,15.2-8.1l1.4-1c0.2-0.2,0.4-0.1,0.6,0.3
		c-0.1,0.2-0.3,0.4-0.7,0.7l-0.6,0.4c-2.2,1.6-7.7,4.5-16.6,8.9l-1.7,2.2c-7.1,10.2-15.1,20.5-23.9,31
		C183.3,194.8,177.5,199.7,174.4,199.7z M173.9,198.9c2.2,0.2,5.9-2.7,11.4-8.6c8.3-9.2,17.2-20.5,26.7-34.1l2.5-3.5
		c-3.2,1.6-6.2,3.3-9,5.1c-3.3,2-7,5.1-11.1,9c-4.1,4-7.4,7.7-10,11.1c-6.6,8.3-10.3,14.6-11.1,18.9
		C173.1,198.2,173.3,198.9,173.9,198.9z M213.4,149.4c1,0,2.5-0.9,4.3-2.6c1.8-1.7,3.3-3.3,4.3-4.8c0.7-0.9,1-1.5,1-1.8
		c0-0.3-0.1-0.4-0.4-0.4c-1.7,0-4.1,1.9-7.3,5.6C212.9,148,212.3,149.4,213.4,149.4z"/>
	<path class="st1" d="M235.6,151.3c-0.7-0.4-1-1.1-1-2.1c0-1,0.2-2,0.6-2.9l0.3-0.7l-0.8,0.4c-0.5,0.4-0.9,0.6-1.3,0.8
		c-0.2,0.1-0.5,0.3-1,0.6c-0.5,0.3-0.8,0.5-1.1,0.7c-0.7,0.4-1.2,0.3-1.8-0.1c-0.5-0.4-0.6-1-0.4-1.9c0.4-0.9,1.4-2,3-3.3
		c1.6-1.3,3.1-2.1,4.4-2.5c1.1-0.3,1.9,0,2.4,0.7c0.2,0.3,0.3,0.4,0.4,0.3c0.5-0.2,0.8-0.1,1,0.3l-0.1,0.1c-0.1,0.2-0.2,0.3-0.3,0.5
		c-0.1,0.1-0.2,0.3-0.3,0.5c-1.9,1.9-3.1,3.5-3.7,5c-0.5,1.5-0.4,2.5,0.1,2.9c0.8,0.6,2.8,0.2,5.8-1c3.1-1.2,6.9-3.5,11.5-7
		c1.6-1.2,2.3-1.5,2.2-1c-0.1,0.4-1.4,1.4-3.9,3.2c-2.5,1.8-4.7,3.2-6.5,4.2c-1.2,0.6-2.4,1.2-3.7,1.7c-1.2,0.5-2.4,0.8-3.4,0.9
		C237.1,151.8,236.3,151.7,235.6,151.3z M231.8,145.9c-0.5,0.6-0.7,0.8-0.6,0.8c0.1,0,0.9-0.4,2.4-1.3c3.2-1.8,4.8-3.1,4.8-4
		c-0.2-0.6-0.9-0.4-2.2,0.6C234.6,143,233.1,144.3,231.8,145.9z"/>
</g>
<g class="st0">
	<path class="st1" d="M73,153.5c-4.4,0.5-7.4-0.9-8.9-4.1c-1.5-3.2-1.1-7,1.2-11.3c3-5.4,7.4-8.9,13.2-10.7c0.9-0.3,2.2-0.4,3.9-0.4
		h2.4l-0.3-0.6c-0.4-0.8-0.3-2,0.1-3.6l0.3-1l-0.7-0.3c-1.5-0.6-2.5-1.5-2.9-2.9c-0.5-1.4-0.3-2.5,0.6-3.5c0.5-0.6,0.9-0.8,1.3-0.4
		c0.1,0,0,0.1-0.1,0.3c-0.4,0.4-0.6,0.7-0.7,1c-0.8,1.9-0.4,3.4,1,4.5c1.1,0.8,1.8,1.1,2,0.8c0.6-1.2,2.1-2.5,4.6-4
		c1.4-0.8,3-1.4,4.7-1.7c1.7-0.3,3-0.3,3.9,0.1c0.9,0.5,1.4,1.1,1.4,1.9c0,1.1-1.4,2.2-4.2,3.3c-2.5,0.9-4.7,1.4-6.5,1.4h-2.4
		l-0.6,1.1c-0.4,0.6-0.6,1.4-0.6,2.4c0,0.7,0.1,1.3,0.4,1.7c0.4,0.6,0.5,0.8,0.4,0.8c-0.4,0-0.7,0-1-0.1c-2.5-0.9-5.9-0.2-10,2.1
		c-3.7,2-6.6,4.8-8.7,8.3c-2.1,3.5-2.8,6.7-2.1,9.6c0.6,2.7,2.2,4.2,4.8,4.4c1.7,0.2,3.4,0,5.2-0.4c3.8-1,8-3.4,12.5-7.1
		c2.8-2.4,5.4-5.5,7.7-9.2c0.6-0.9,1.2-2,1.9-3.3c0.7-1.3,1.3-2.4,1.8-3.3c0.5-0.9,0.7-1.4,0.6-1.5c-0.3-0.3-2.7,0.6-7.3,2.8
		c-2.4,1.1-4.4,2.9-5.9,5.3l-0.7,1.4c0.2,0.2,0.2,0.3,0,0.3c-0.9,0-0.9-0.9,0-2.8c0.3-0.6,0.7-1.3,1.3-1.8c1.4-1.6,4.4-3.2,9.1-4.9
		c1.9-0.6,3-1.1,3.4-1.3c0.4-0.2,0.6-0.4,0.5-0.6c-0.1-0.2-0.1-0.3,0-0.3c0.1,0,0.3,0,0.7,0.1c0.5,0.2,2-0.4,4.6-1.8
		c5.1-2.6,7.6-4.2,7.6-4.9c0-0.2,0.1-0.2,0.3-0.1c1,0.6-0.8,2.1-5.6,4.6c-0.8,0.5-1.7,0.9-2.7,1.4c-2.5,1.2-3.8,1.9-3.8,2.2
		c0,1.1-1.2,3.8-3.5,8.1c-1.6,3-3.7,5.8-6.5,8.5c-1.6,1.6-3.1,2.9-4.6,4C81.6,151.3,77.2,153.2,73,153.5z M87.3,121.5
		c0,0.1,0.7,0.1,2,0c1.3-0.1,2.4-0.2,3.4-0.4c2.3-0.5,4.2-1.4,5.6-2.8c0.7-0.7,0.8-1.3,0.4-1.7c-0.2-0.2-0.6-0.3-1.1-0.3
		c-2.2,0-4.7,1-7.7,2.9C88.2,120.4,87.3,121.2,87.3,121.5z"/>
</g>
</svg>
