<?xml version="1.0" encoding="utf-8"?>
<!-- Generator: Adobe Illustrator 26.0.1, SVG Export Plug-In . SVG Version: 6.00 Build 0)  -->
<svg version="1.1" id="Layer_1" xmlns="http://www.w3.org/2000/svg" xmlns:xlink="http://www.w3.org/1999/xlink" x="0px" y="0px"
	 viewBox="0 0 769.8 235.9" style="enable-background:new 0 0 769.8 235.9;" xml:space="preserve">
<style type="text/css">
	.st0{fill:#010101;}
</style>
<g>
	<path class="st0" d="M72.3,143.7c-9.1-5.1-10.7-17.4-4.6-36.8c4.3-14.5,12.3-28.6,24-42.5c11.9-13.8,23.6-23.7,35.3-29.7
		c5.5-2.9,10.9-4.7,16.3-5.4c4-0.3,7.7-0.2,11.3,0.5c3.8,0.9,7.1,2.7,10.1,5.6l1.3,1.3l0.3-1.3c0.3-2.9,2.3-6.3,5.9-10.2
		c2.7-3.1,5.7-4.9,8.8-5.6c0.3-0.2,1.1-0.2,2.2,0c1.1,0.2,1.9,0.3,2.5,0.5c1.4,0.9,1.7,2.4,1,4.6c-0.3,1-1.4,2.3-3.2,3.8
		s-3,2-3.5,1.5c-0.2-0.2,0-0.4,0.5-0.8c2.4-1.9,4-3.4,4.6-4.6c1.2-2.6,0.9-3.7-1-3.6c-1.2,0.2-2.9,1-5.2,2.6c-4,2.6-7,5.9-9,10
		c-1.4,2.4-2.1,4.6-2.1,6.6c0.2,0.5,0.2,0.9,0,1c-0.5,0.3-0.9,0-1.3-1c-0.2-0.2-0.3-0.3-0.3-0.5c-0.5-1.7-1.9-3.3-4-4.9
		c-2.2-1.5-4.4-2.5-6.8-2.8c-3.4-0.9-6.4-0.9-8.8,0c-3.6,1.2-6,2-7.2,2.6c-5.5,2.7-9.3,4.9-11.3,6.4c-7.4,4.8-14.6,10.7-21.7,17.6
		c-8.9,8.7-17.7,20-26.3,34c-17.4,28.8-18.1,45.8-2.3,50.9c5.8,1.9,14.9-0.9,27.2-8.3c12.3-7.4,28.1-18.1,47.3-32.1
		c2.4-1.9,4.2-3.2,5.4-4.1c1.4-1.2,2.2-1.4,2.6-0.5c0.2,0.2-1.2,1.3-4.1,3.5c-2.9,2.1-6.9,5-11.9,8.6c-22.5,16-37.4,25.9-44.6,29.7
		C87.8,146.2,78.7,147.3,72.3,143.7z"/>
	<path class="st0" d="M160,123.5c-3.3,2.4-6.2,3.5-8.6,3.5c-2.5-0.1-3.8-1.5-4-4.2c0-0.9-0.3-1.6-1-2.3c-0.5-0.3-0.8-0.9-0.8-1.8
		c0.2-2.9,5.1-10.7,14.7-23.5l5.4-7.2c1-1.4,2.7-3.4,5.2-6.1c6-7.5,12.9-14.7,20.6-21.5c5.2-4.4,9.7-7.7,13.7-9.7
		c0.9-0.5,1.8-0.4,2.8,0.3c0.7,0.5,0.7,1.2,0,2c-0.7,0.9-2.8,3.2-6.4,6.9c-9.8,9.4-17.3,16-22.4,20c-4.3,3.2-7.6,6.2-9.8,9l-7.7,9.7
		c-2.6,3.2-3.9,5.3-3.9,6.1l0.3,1.3l1.8-1.3c4-3.1,7.4-4.4,10.3-4.1c3.3,0.3,4.6,2,4.1,4.9c-0.3,2-1.4,4.3-3.1,6.9l-1,1.5
		c5.2,0,14.4-5.1,27.9-15.3c0.7-0.5,1.2-0.4,1.5,0.3c-2.8,2.7-7.8,6.4-15.2,11c-2.1,1.2-4.6,2.4-7.5,3.6c-2.4,1-4.3,1.6-5.7,1.8
		l-2.3,0.3l-1.8,2C163.9,120.4,161.5,122.5,160,123.5z M149.9,125c1,1.4,3.7,0.3,8-3.1c4-3.2,6.3-5.5,7-6.9c-0.5,0-1.7-0.6-3.6-1.9
		c-1.9-1.3-3.2-2.6-3.9-4l-2.1,1.8c-2.1,1.9-3.6,3.8-4.6,5.9C148.6,120.7,148.4,123.5,149.9,125z M154.3,108.6
		c0.2,0.2,0.6-0.1,1.3-0.8c0.7-0.7,1-1.1,1-1.3l-0.3-0.8c-0.2-0.2-0.3-0.2-0.5,0c-0.2,0.2-0.4,0.6-0.8,1.3L154.3,108.6z M163.3,113
		c1.4,0.7,2.2,1,2.5,0.9c0.3-0.1,0.7-0.6,1.4-1.7c3.3-3.9,4.7-7,4.4-9.2c-0.3-0.5-0.8-0.8-1.3-0.8c-0.7,0-2.6,0.7-5.7,2
		c-4,2-5.9,3.4-5.9,4.1C159.2,110.4,160.8,112,163.3,113z M179.3,77.4l2.3-1.8c5.7-4.1,12.3-10.2,19.9-18.4l2.1-2.3
		c-0.5,0-3.6,2.6-9.3,7.7c-4.1,3.6-8.2,7.5-12.1,11.8L179.3,77.4z"/>
	<path class="st0" d="M230.7,98.2c0.7-0.2,1.1,0,1.3,0.5l-1,1l-4.6,3.6l-6.7,4.6l-7.5,4.9c-0.5,0.2-1.6,0.8-3.2,1.8
		c-1.6,1-3,1.8-4,2.3c-2.8,1.5-5.2,2.4-7.4,2.7c-2.2,0.3-3.7-0.1-4.8-1c-1-0.9-1.3-2.3-0.8-4.2c0.5-2,2.1-4.5,4.6-7.4
		c2.1-2,5.1-4.5,9-7.4c2.9-1.9,4.6-3.3,4.9-4.3c0.2-0.7-0.3-0.9-1.3-0.8c-3.3,0.5-7,2.2-11.1,5.1c-0.2,0-0.6,0.3-1.4,1
		c-0.8,0.7-1.5,1.2-2.2,1.5l-1,0.5c-0.5-0.5-0.7-0.9-0.5-1c2.6-2,4.8-3.7,6.7-4.9c2.7-1.9,5.3-3,7.7-3.5c2.4-0.4,4,0.1,4.6,1.7
		c0.7,1.4-1.5,4-6.4,7.9c-7.9,6.1-11.9,10.7-11.9,13.6c0,1,0.3,1.7,1,2c0.7,0.3,1.8,0.2,3.5-0.4c1.6-0.6,3.1-1.2,4.3-1.8
		c1.2-0.6,2.9-1.5,5.2-2.7l4.4-2.6c1.7-1,4.3-2.7,7.7-5.1l7.5-5.4C229.4,98.9,230.5,98.2,230.7,98.2z"/>
	<path class="st0" d="M223.4,112.2c-2.2-2.2-2.1-5.1,0.5-8.7c1.9-3.2,4.6-5.6,8.3-7.2c2.1-0.9,3.5-0.9,4.4,0
		c0.7,0.5,0.8,1.4,0.4,2.6c-0.4,1.2-1.2,2.2-2.5,3.1c-2.4,1.7-4.9,2.7-7.5,3.1c-0.7,0-1.3,0.4-1.8,1.3c-2.1,3.6-1.1,5.6,2.8,6.1
		c7.7,0,17.4-4,28.9-12l3.1-2c0.2-0.2,0.4-0.2,0.8,0c0.3,0.2,0.4,0.4,0.3,0.8c-6.4,5.1-13.6,9.2-21.7,12.3
		C231.3,114.5,226,114.8,223.4,112.2z M227.3,103.5c1.2,0,2.9-0.7,5.2-2c1.5-1,2.6-2.1,3.1-3.3c0.2-0.5,0-0.8-0.5-0.8l-2.8,1.5
		C228.8,101.5,227.1,103,227.3,103.5z"/>
	<path class="st0" d="M271.4,115.5c-4.1,1.2-6.9,0.7-8.3-1.5c-1-2,0-5.1,3.1-9.2c1-1.4,1.5-2,1.3-2c-0.7,0.3-2.1,0.5-4.1,0.5
		l-3.6,0.3l-3.9,4.1c-3.6,4.1-5.3,6.5-5.2,7.2c0.2,0.5,0,0.8-0.5,0.8l-0.5-0.5c-0.3-0.2-0.6-0.3-0.8-0.5c-0.3-0.5-0.4-1.2-0.3-2
		l1.8-3.3c1-1.4,3.7-4.3,7.9-8.8c4.2-4.5,7-7.5,8.4-8.8c1.9-1.5,3.1-2,3.6-1.5c1.2,0.9-0.6,3.8-5.4,8.7l-4.1,3.8l2.8-0.3
		c3.3-0.2,5.6-0.9,7-2c3.6-3.4,5.9-4.6,7-3.6c0.9,0.7,0.4,1.7-1.3,3.1c-1.9,1.5-4,3.5-6.3,6c-2.3,2.5-3.8,4.3-4.5,5.5
		c-0.9,2.6-0.3,3.8,1.7,3.8c2,0,4.2-0.6,6.6-1.8c4.5-1.7,11.1-5.6,19.9-11.8l4.9-3.3c0.3-0.2,0.6-0.2,0.8,0c0.2,0.2,0.2,0.4,0,0.8
		c-0.5,0.7-4.6,3.7-12.4,9C280.9,112.1,275.7,114.7,271.4,115.5z"/>
	<path class="st0" d="M297.7,119.9c0-2.4,1.9-6.1,5.7-11.3l1.8-2.6l-0.3,0.3c-0.2,0-0.5,0.1-0.9,0.4c-0.4,0.3-0.8,0.5-1.2,0.6
		c-5.2,2.7-8.3,4.1-9.5,4.1c-0.7,0-1.2-0.2-1.5-0.5c-1.2-1.7-0.1-4.7,3.4-9c3.6-4.9,6.4-7.8,8.5-8.7l0.8-0.3c0.7,0,1.2,0.5,1.5,1.5
		c0.3,0.5-0.9,2-3.6,4.6c-1.4,1.2-2.8,2.6-4.3,4.2c-1.5,1.6-2.6,3-3.5,4.1c-0.9,1.1-1.2,1.8-1,1.9c0,0.2,0.7,0,2.2-0.6
		c1.5-0.6,3.2-1.4,5.2-2.4c2-1,3.7-2,5-2.8c1.5-1,3.5-2.6,5.9-4.6c2.7-2.6,4.4-3.6,4.9-3.1c0.5,0.7,0.6,1.4,0.3,2
		c-0.3,0.7-1.9,2.3-4.6,4.9c-7.4,7.3-11.7,12.5-12.9,15.6c-1.5,3.9,1.3,4.3,8.5,1.3c9.1-3.9,20.6-11,34.6-21.2
		c0.7-0.3,1.3-0.3,1.8,0.3c-5,4.1-11.1,8.3-18.3,12.5c-8.8,5.6-15.4,9.2-19.9,10.7C300.5,124.2,297.7,123.5,297.7,119.9z"/>
	<path class="st0" d="M342.3,119.9c0-2.4,1.9-6.1,5.7-11.3l1.8-2.6l-0.3,0.3c-0.2,0-0.5,0.1-0.9,0.4c-0.4,0.3-0.8,0.5-1.2,0.6
		c-5.2,2.7-8.3,4.1-9.5,4.1c-0.7,0-1.2-0.2-1.5-0.5c-1.2-1.7-0.1-4.7,3.4-9c3.6-4.9,6.4-7.8,8.5-8.7L349,93c0.7,0,1.2,0.5,1.5,1.5
		c0.3,0.5-0.9,2-3.6,4.6c-1.4,1.2-2.8,2.6-4.3,4.2c-1.5,1.6-2.6,3-3.5,4.1c-0.9,1.1-1.2,1.8-1,1.9c0,0.2,0.7,0,2.2-0.6
		c1.5-0.6,3.2-1.4,5.2-2.4c2-1,3.7-2,5-2.8c1.5-1,3.5-2.6,5.9-4.6c2.7-2.6,4.4-3.6,4.9-3.1c0.5,0.7,0.6,1.4,0.3,2
		c-0.3,0.7-1.9,2.3-4.6,4.9c-7.4,7.3-11.7,12.5-12.9,15.6c-1.5,4.1,1.5,4.4,9,1c9.1-4.1,20.6-11.2,34.6-21.2c0.5-0.2,0.9,0,1.3,0.5
		c-5,4.1-11.1,8.3-18.3,12.5c-8.8,5.6-15.4,9.2-19.9,10.7C345.2,124.2,342.3,123.5,342.3,119.9z M358.8,86.4
		c-1.5-1.9-1.7-3.4-0.5-4.6c0.5-0.5,1-0.7,1.4-0.6c0.4,0.1,0.8,0.3,1.2,0.5c0.3,0.3,0.4,0.6,0.3,0.9c-0.7,1.5-0.7,2.6,0,3.3
		c0.7,0.7,2,0.9,3.9,0.8c2.4-0.3,3.6-0.8,3.6-1.3c0-0.2,0.1-0.3,0.3-0.3c0.3,0,0.5,0.3,0.5,0.8c0,0.3-0.1,0.6-0.3,0.8
		c-1,1-2.8,1.5-5.4,1.5C361.5,88.2,359.9,87.6,358.8,86.4z"/>
	<path class="st0" d="M423.1,119.9c0-2.4,1.9-6.1,5.7-11.3l1.8-2.6l-0.3,0.3c-0.2,0-0.5,0.1-0.9,0.4c-0.4,0.3-0.8,0.5-1.2,0.6
		c-5.2,2.7-8.3,4.1-9.5,4.1c-0.7,0-1.2-0.2-1.5-0.5c-1.2-1.7-0.1-4.7,3.4-9c3.6-4.9,6.4-7.8,8.5-8.7l0.8-0.3c0.7,0,1.2,0.5,1.5,1.5
		c0.3,0.5-0.9,2-3.6,4.6c-1.4,1.2-2.8,2.6-4.3,4.2c-1.5,1.6-2.6,3-3.5,4.1c-0.9,1.1-1.2,1.8-1,1.9c0,0.2,0.7,0,2.2-0.6
		c1.5-0.6,3.2-1.4,5.2-2.4c2-1,3.7-2,5-2.8c1.5-1,3.5-2.6,5.9-4.6c2.7-2.6,4.4-3.6,4.9-3.1c0.5,0.7,0.6,1.4,0.3,2
		c-0.3,0.7-1.9,2.3-4.6,4.9c-7.4,7.3-11.7,12.5-12.9,15.6c-1.5,3.9,1.3,4.3,8.5,1.3c9.1-3.9,20.6-11,34.6-21.2
		c0.7-0.3,1.3-0.3,1.8,0.3c-5,4.1-11.1,8.3-18.3,12.5c-8.8,5.6-15.4,9.2-19.9,10.7C425.9,124.2,423.1,123.5,423.1,119.9z"/>
	<path class="st0" d="M498.4,151.9c-5.8,0-10.5-0.6-13.9-1.8c-6.5-2.6-10-6.6-10.3-12c0-2.7,0.7-5.5,2.1-8.4
		c2.8-5.3,7.7-10,14.8-14.2c7.1-4.2,15.1-6.9,23.9-8.3c2.4-0.3,3.7-0.6,3.9-0.8l6.4-8.4c26.5-33.9,47.2-58,62.2-72.1
		c4.5-4.4,7-6.6,7.7-6.4c1.2,0,1.8,0.6,1.8,1.8c0,0.2-0.9,1.3-2.6,3.3l-16.8,18.2l-1,0.8l1-0.3l11.1-5.1c13.9-7.7,21.6-14.2,23-19.4
		c0.2-0.7,0-1.3-0.5-1.8c-0.3-0.5-1.5-0.8-3.6-0.8c-5-0.3-11.4,1.4-19.3,5.1c-5.8,2.6-10.3,5.4-13.4,8.4l-2.3,1.8
		c-0.3-0.5,0.4-1.7,2.2-3.5c1.8-1.8,4.1-3.5,6.8-5.2c6.7-4.1,13.4-6.8,20.1-8.2c4-0.9,7-0.7,9,0.5c1.9,0.9,2.8,2.1,2.8,3.8
		c-0.3,5.3-7.1,11.6-20.1,18.9c-4.3,2.4-9.6,5-16,7.9l-2.3,0.8l1.3,0.3c10.5,2,16.8,6.7,19.1,14.1c0.5,1.5,0.7,4,0.5,7.4
		c0,3.4-0.4,6.4-1.3,9c-0.7,2.2-1.6,4.9-2.8,8.2c-2.6,6-5.8,11.8-9.5,17.4l-2.3,3.6c0.3,0.2,1.3,0.2,3,0.1c1.6-0.1,3.7-0.3,6.3-0.8
		c2.6-0.4,4.6-0.8,6.2-1.2c5-1.2,9.3-3.2,12.9-6.1c0.7-0.5,1.3-0.8,1.8-0.8c0.9,0,0.9,0.3,0.3,1c-4.6,3.4-8.3,5.5-11.1,6.4
		c-5.7,1.7-11.6,2.8-17.8,3.3c-2.2,0.2-3.7,0.8-4.4,1.8c-0.2,0.2-0.4,0.5-0.8,1c-16.3,20.5-36.8,33.3-61.4,38.6
		C508.5,151.2,503,151.9,498.4,151.9z M483.4,148c7.7,3.2,18.4,3.2,32-0.3c18.2-4.6,34.4-13.6,48.5-27.1c7.2-7.2,10.7-11,10.3-11.5
		l-4.9,0.3c-4.5,0-9-0.2-13.7-0.5c-20.6-1.5-31.6-1.8-33-0.8c-0.2,0.2-1,1.2-2.5,3.1c-1.5,1.9-3.2,4.2-5.3,6.9
		c-2.1,2.7-3.8,5-5.2,6.9c-6.5,8.9-10.6,14.5-12.1,16.9c-0.7,1.5-1.5,1.9-2.3,1c-1-1.4,1.5-6.6,7.7-15.6l9.3-12.5l4.1-5.9l-3.4,0.5
		c-6.2,1.2-12.2,3.3-17.9,6.4s-10.3,6.5-13.5,10.2c-6.2,7.3-7.5,13.3-3.9,17.9C478.9,145.8,480.8,147.2,483.4,148z M572.6,107.1
		c1.9-0.2,3.1-0.4,3.6-0.8c0.5-0.3,1.6-1.8,3.4-4.3c11-16.7,15.8-29.9,14.4-39.6c-1.2-7.3-6.5-11.8-16-13.6c-1.4-0.7-2.7-0.9-4-0.5
		c-1.3,0.3-2.2,0.7-2.6,1.2c-0.4,0.4-1.8,1.9-4,4.5l-19.6,23.3c-15.6,19.1-23.5,28.7-23.5,28.9l4.9-0.3c5.8,0,11.3,0.2,16.2,0.5
		C559.3,107,568.3,107.3,572.6,107.1z"/>
	<path class="st0" d="M601.5,112.2c-2.2-2.2-2.1-5.1,0.5-8.7c1.9-3.2,4.6-5.6,8.3-7.2c2.1-0.9,3.5-0.9,4.4,0
		c0.7,0.5,0.8,1.4,0.4,2.6c-0.4,1.2-1.2,2.2-2.5,3.1c-2.4,1.7-4.9,2.7-7.5,3.1c-0.7,0-1.3,0.4-1.8,1.3c-2.1,3.6-1.1,5.6,2.8,6.1
		c7.7,0,17.4-4,28.9-12l3.1-2c0.2-0.2,0.4-0.2,0.8,0c0.3,0.2,0.4,0.4,0.3,0.8c-6.4,5.1-13.6,9.2-21.7,12.3
		C609.4,114.5,604.1,114.8,601.5,112.2z M605.4,103.5c1.2,0,2.9-0.7,5.2-2c1.5-1,2.6-2.1,3.1-3.3c0.2-0.5,0-0.8-0.5-0.8l-2.8,1.5
		C606.9,101.5,605.2,103,605.4,103.5z"/>
	<path class="st0" d="M560.8,205.3c-4.8,0-5.2-4.6-1-13.8l2.1-3.8c8.9-16.9,22.2-33.2,39.7-48.9c7.1-6.1,17.6-13.1,31.7-21
		c2.2-1.2,4-2.9,5.4-5.1l2.3-3.6l-1,0.8l-0.5,0.5c-2.1,1.9-4,3.1-5.9,3.6c-1.9,0.5-3.2,0.2-3.9-1c-1.4-2.6,0.5-6.4,5.5-11.6
		c5.1-5.2,9.4-7.8,13-7.8c1.4,0,2.1,0.3,2.3,0.8c0.5,0.3,0.9,0.4,1,0.3l3.6-4.3c2.9-3.7,4.8-6,5.7-6.7c1.5-1.5,2.6-2.3,3.1-2.3
		l0.5,0.5c0,0.5-0.7,1.5-2.1,2.8c-4,4.8-10.7,14-20.1,27.6l-1.8,2.6c10.5-4.6,19.8-9.5,27.9-14.8l2.6-1.8c0.3-0.3,0.7-0.2,1,0.5
		c-0.2,0.3-0.6,0.8-1.3,1.3l-1,0.8c-4,2.9-14.1,8.4-30.4,16.4l-3.1,4.1c-13.1,18.8-27.7,37.8-43.8,57
		C577.1,196.3,566.6,205.3,560.8,205.3z M560,203.8c4,0.3,10.9-4.9,20.9-15.9c15.3-16.9,31.6-37.8,49-62.7l4.6-6.4
		c-5.8,2.9-11.3,6.1-16.5,9.5c-6,3.8-12.8,9.3-20.4,16.6c-7.6,7.3-13.7,14.2-18.3,20.5c-12.2,15.3-19,26.9-20.4,34.8
		C558.5,202.6,558.8,203.8,560,203.8z M632.5,112.7c1.9,0,4.5-1.6,7.9-4.7c3.4-3.2,6-6.1,7.9-8.8c1.2-1.7,1.8-2.8,1.8-3.3
		c0-0.5-0.3-0.8-0.8-0.8c-3.1,0-7.6,3.4-13.4,10.2C631.5,110.3,630.4,112.7,632.5,112.7z"/>
	<path class="st0" d="M673.2,116.3c-1.2-0.7-1.8-2-1.8-3.8c0-1.9,0.3-3.7,1-5.4l0.5-1.3l-1.5,0.8c-0.9,0.7-1.6,1.2-2.3,1.5
		c-0.3,0.2-0.9,0.5-1.8,1c-0.9,0.5-1.5,0.9-2.1,1.3c-1.2,0.7-2.3,0.6-3.2-0.1c-0.9-0.8-1.2-1.9-0.6-3.5c0.7-1.7,2.5-3.7,5.5-6.1
		c3-2.4,5.7-3.9,8.1-4.6c2.1-0.5,3.5-0.1,4.4,1.3c0.3,0.5,0.6,0.7,0.8,0.5c0.9-0.3,1.5-0.2,1.8,0.5l-0.3,0.3
		c-0.2,0.3-0.3,0.6-0.5,0.9c-0.2,0.3-0.3,0.6-0.5,0.9c-3.4,3.4-5.7,6.5-6.7,9.2c-0.9,2.7-0.8,4.5,0.3,5.4c1.5,1,5.1,0.4,10.6-1.8
		c5.7-2.2,12.7-6.5,21.2-12.8c2.9-2.2,4.3-2.8,4.1-1.8c-0.2,0.7-2.5,2.6-7.1,5.9c-4.6,3.2-8.6,5.8-12,7.7c-2.2,1.2-4.5,2.2-6.7,3.1
		c-2.2,0.9-4.3,1.4-6.3,1.7C676,117.2,674.4,117,673.2,116.3z M666.3,106.3c-0.9,1-1.2,1.5-1,1.5c0.2,0,1.6-0.8,4.4-2.3
		c5.8-3.2,8.8-5.7,8.8-7.4c-0.3-1-1.7-0.7-4.1,1C671.3,101.1,668.7,103.4,666.3,106.3z"/>
</g>
</svg>
