<?xml version="1.0" encoding="UTF-8"?>
<svg id="_Слой_2" data-name="Слой 2" xmlns="http://www.w3.org/2000/svg" viewBox="0 0 546.64 94.09">
  <g id="_Слой_1-2" data-name="Слой 1">
    <g>
      <path d="M.88,74.93c-.42,0-.71-.37-.88-1.12,0-1.08,2.05-5.15,6.16-12.22,7.12-12.88,13.41-22.86,18.86-29.92,6.54-8.81,10.18-13.3,10.94-13.46,.17,0,.36,.12,.57,.37,.21,.25,.31,.46,.31,.62,0,.25-1.22,2.04-3.65,5.36l-1.51,2,1.51-1.5c3.02-3.41,6.16-6.4,9.43-8.98,2.09-1.58,4.48-3.2,7.17-4.86,5.11-2.99,9.56-4.9,13.33-5.74,2.09-.5,4.02-.58,5.78-.25,3.18,.67,4.65,2.66,4.4,5.98-.17,4.91-3.23,11.26-9.18,19.08-1.68,2.16-4.4,5.28-8.17,9.35-4.95,4.82-9.85,8.69-14.71,11.6-4.86,2.74-9.26,4.24-13.2,4.49-1.17,.17-2.31,.17-3.39,0-1.59-.33-2.81-.87-3.65-1.62-1.43-1.16-2.31-3.24-2.64-6.23l-.25-2-1.38,2-7.8,12.47c-4.95,7.98-7.29,12.18-7.04,12.59l.25-.12c.25-.25,.54-.17,.88,.25,.08,.17-.08,.46-.5,.87-.59,.83-1.13,1.17-1.63,1Zm25.4-20.7c3.77-.08,8.13-1.58,13.08-4.49,7.46-4.32,14.71-10.76,21.75-19.33,7.04-8.56,10.69-15.38,10.94-20.45,0-1.25-.21-2.08-.63-2.49-.42-.58-1.38-.96-2.89-1.12-2.6-.33-6.02,.33-10.25,2-4.23,1.66-8.53,4.03-12.89,7.11-3.6,2.58-7.63,6.23-12.07,10.97-5.37,5.98-9.98,11.72-13.83,17.21l-.88,1.37,.38,.75c.08,.33,.29,1.33,.63,2.99,.33,2.58,1.05,4.16,2.14,4.74,1.26,.58,2.77,.83,4.53,.75Z"/>
      <path d="M56.95,57.23c-1.09-1.08-1.01-2.49,.25-4.24,.92-1.58,2.26-2.74,4.02-3.49,1.01-.42,1.72-.42,2.14,0,.33,.25,.4,.67,.19,1.25-.21,.58-.61,1.08-1.2,1.5-1.17,.83-2.39,1.33-3.65,1.5-.34,0-.63,.21-.88,.62-1.01,1.75-.55,2.74,1.38,2.99,3.77,0,8.46-1.95,14.08-5.86l1.51-1c.08-.08,.21-.08,.38,0,.17,.08,.21,.21,.13,.37-3.1,2.49-6.62,4.49-10.56,5.98-3.94,1.5-6.54,1.62-7.8,.37Zm1.89-4.24c.58,0,1.42-.33,2.51-1,.75-.5,1.26-1.04,1.51-1.62,.08-.25,0-.37-.25-.37l-1.38,.75c-1.68,1.25-2.47,2-2.39,2.24Z"/>
      <path d="M91.28,50.37c.33-.08,.54,0,.63,.25l-.5,.5-2.26,1.75-3.27,2.25-3.65,2.37c-.25,.08-.78,.37-1.57,.87-.8,.5-1.45,.87-1.95,1.12-1.34,.75-2.54,1.18-3.58,1.31-1.05,.12-1.82-.04-2.33-.5-.5-.46-.63-1.14-.38-2.06,.25-1,1.01-2.2,2.26-3.62,1.01-1,2.47-2.2,4.4-3.62,1.42-.91,2.22-1.62,2.39-2.12,.08-.33-.12-.46-.63-.37-1.59,.25-3.39,1.08-5.41,2.49-.08,0-.31,.17-.69,.5-.38,.33-.74,.58-1.07,.75l-.5,.25c-.25-.25-.34-.41-.25-.5,1.26-1,2.35-1.79,3.27-2.37,1.34-.91,2.6-1.47,3.77-1.68,1.17-.21,1.93,.06,2.26,.81,.33,.67-.71,1.95-3.14,3.87-3.86,2.99-5.78,5.2-5.78,6.61,0,.5,.17,.83,.5,1,.33,.17,.9,.11,1.7-.19,.8-.29,1.49-.58,2.07-.87,.59-.29,1.42-.73,2.51-1.31l2.14-1.25c.84-.5,2.09-1.33,3.77-2.49l3.65-2.62c1.01-.75,1.55-1.12,1.63-1.12Z"/>
      <path d="M90.9,60.97c0-1.16,.92-2.99,2.77-5.49l.88-1.25-.13,.12c-.08,0-.23,.06-.44,.19-.21,.12-.4,.23-.57,.31-2.51,1.33-4.07,2-4.65,2-.34,0-.59-.08-.75-.25-.59-.83-.04-2.29,1.63-4.36,1.76-2.41,3.14-3.82,4.15-4.24l.38-.12c.33,0,.59,.25,.75,.75,.17,.25-.42,1-1.76,2.24-.67,.58-1.36,1.27-2.07,2.06-.71,.79-1.28,1.46-1.7,2-.42,.54-.59,.85-.5,.94,0,.08,.36-.02,1.07-.31,.71-.29,1.55-.69,2.51-1.18,.96-.5,1.78-.96,2.45-1.37,.75-.5,1.72-1.25,2.89-2.24,1.34-1.25,2.14-1.75,2.39-1.5,.25,.33,.29,.67,.13,1-.17,.33-.92,1.12-2.26,2.37-3.6,3.58-5.7,6.11-6.29,7.61-.75,1.91,.63,2.12,4.15,.62,4.44-1.91,10.06-5.36,16.85-10.35,.33-.17,.63-.12,.88,.12-2.43,2-5.41,4.03-8.93,6.11-4.27,2.74-7.5,4.49-9.68,5.24-2.77,1.08-4.15,.75-4.15-1Z"/>
      <path d="M110.26,57.6c-.92-.75-1.22-1.7-.88-2.87,.42-1.16,1.28-2.41,2.58-3.74,1.3-1.33,2.62-2.29,3.96-2.87,.75-.33,1.42-.44,2.01-.31,.59,.12,.88,.4,.88,.81,0,.67-.5,1.54-1.51,2.62-1.26,1.08-2.1,1.62-2.51,1.62-.59,0-.5-.25,.25-.75,.92-.58,1.72-1.27,2.39-2.06,.67-.79,.88-1.31,.63-1.56-.25-.25-1.05,.08-2.39,1-1.76,1.08-3.17,2.39-4.21,3.93-1.05,1.54-1.36,2.68-.94,3.43,.33,.75,1.59,1,3.77,.75,2.18-.25,4.53-.96,7.04-2.12,2.26-1.08,4.48-2.41,6.66-3.99,.25-.17,.58-.37,1.01-.62l.63-.5c.25,0,.42,.12,.5,.37l-.63,.5c-1.26,1-3.02,2.16-5.28,3.49l-2.77,1.37c-5.28,2.58-9.01,3.08-11.19,1.5Z"/>
      <path d="M144.58,58.97c1.34,.25,5.41-2.24,12.2-7.48,.92-.75,1.59-1.2,2.01-1.37,.17-.08,.29-.06,.38,.06,.08,.12,.08,.23,0,.31-.17,.17-.88,.75-2.14,1.75-.67,.5-1.49,1.1-2.45,1.81-.96,.71-1.72,1.27-2.26,1.68-.55,.42-1.17,.87-1.89,1.37-.71,.5-1.28,.87-1.7,1.12-.42,.25-.9,.52-1.45,.81-.55,.29-.99,.46-1.32,.5-.34,.04-.71,.08-1.13,.12-.42,.04-.78-.02-1.07-.19-.29-.17-.61-.42-.94-.75-.84-.83-1.09-2.24-.75-4.24,.08-.25,.21-.62,.38-1.12,.17-.5,.27-.85,.31-1.06,.04-.21,.02-.39-.06-.56-.67,.5-1.34,1.04-2.01,1.62-2.6,2.16-3.9,3.62-3.9,4.36,0,.17-.08,.25-.25,.25-.5,0-.67-.21-.5-.62,.17-.5,1.26-2.29,3.27-5.36,1.84-2.83,2.85-4.53,3.02-5.11,.08-.42,.04-.66-.12-.75-.17-.08-.55-.04-1.13,.12-3.19,.67-6.96,2.79-11.32,6.36-.42,.33-1.03,.89-1.82,1.68-.8,.79-1.51,1.5-2.14,2.12-.63,.62-.94,.98-.94,1.06l-.13,.25c-.08,.08-.23,.06-.44-.06-.21-.12-.31-.23-.31-.31,0-.5,1.38-2.37,4.15-5.61,1.01-1.16,1.84-2.08,2.51-2.74,.84-.83,1.42-1.16,1.76-1,.08,.08,.12,.21,.12,.37,0,.42-.55,1.17-1.63,2.24l-.25,.25c.17-.08,.59-.37,1.26-.87,3.69-2.99,6.87-4.49,9.55-4.49,.75,0,1.34,.15,1.76,.44,.42,.29,.58,.73,.5,1.31-.08,.67-.71,1.79-1.89,3.37-.42,.5-.8,1-1.13,1.5l-.13,.12c.17-.08,.29-.17,.38-.25,.84-.58,1.42-.87,1.76-.87,.25,0,.44,.04,.57,.12,.13,.08,.19,.21,.19,.37v.44c0,.12-.06,.33-.19,.62-.13,.29-.19,.52-.19,.69-.84,3.49-.34,5.36,1.51,5.61Z"/>
      <path d="M131.38,94.01c-.08,.17-.29,.08-.63-.25l-.38-.12,1.13-1.75,12.07-19.58c10.14-15.96,17.6-26.89,22.38-32.79,.58-.67,1.01-.96,1.26-.87,.25,0,.38,.04,.38,.12,0,.42-1.51,2.79-4.53,7.11l-3.02,4.24,.25,.37,.25,.5,2.26-1.25c2.18-1.08,3.77-1.7,4.78-1.87,.84,0,1.34,.25,1.51,.75,.33,.83-.42,2.45-2.26,4.86l-1.63,1.87c3.18,1.25,7.08,.58,11.69-2,1.42-.83,2.89-1.79,4.4-2.87,.17-.17,.31-.21,.44-.12,.13,.08,.15,.21,.06,.37l-.63,.62c-1.84,1.42-3.39,2.41-4.65,2.99-4.36,2.24-8.38,2.79-12.07,1.62l-1.13,1.25c-3.02,2.83-5.07,3.28-6.16,1.37-.42-.83-.42-1.91,0-3.24l.13-.62c-.17,.25-1.17,1.66-3.02,4.24-4.28,5.82-9.09,13.18-14.46,22.07-5.03,8.06-7.84,12.38-8.42,12.97Zm26.91-35.04c.67,.17,1.46-.12,2.39-.87,.25-.17,.61-.46,1.07-.87,.46-.42,.86-.79,1.19-1.12l.38-.62c-1.09-.58-2.05-1.5-2.89-2.74-.08-.25-.34-.21-.75,.12-.42,.33-.84,.96-1.26,1.87-.92,2.58-.96,3.99-.12,4.24Zm5.66-4.11c.08,0,.31-.21,.69-.62,.38-.42,.82-.94,1.32-1.56s.88-1.14,1.13-1.56c.5-.66,.84-1.25,1.01-1.75,.17-.42,.21-.67,.12-.75-.25-.25-1.63,.21-4.15,1.37-2.01,1.08-3.02,1.83-3.02,2.24,0,.25,.36,.75,1.07,1.5,.71,.75,1.32,1.12,1.82,1.12Z"/>
      <path d="M182.67,59.22c-.59-.33-.88-.96-.88-1.87s.17-1.79,.5-2.62l.25-.62-.75,.37c-.42,.33-.8,.58-1.13,.75-.17,.08-.46,.25-.88,.5-.42,.25-.75,.46-1.01,.62-.59,.33-1.11,.31-1.57-.06-.46-.37-.57-.93-.31-1.68,.33-.83,1.24-1.83,2.7-2.99,1.46-1.16,2.79-1.91,3.96-2.24,1.01-.25,1.72-.04,2.14,.62,.17,.25,.29,.33,.38,.25,.42-.17,.71-.08,.88,.25l-.12,.12c-.08,.17-.17,.31-.25,.44-.08,.12-.17,.27-.25,.44-1.68,1.66-2.77,3.16-3.27,4.49-.42,1.33-.38,2.2,.13,2.62,.75,.5,2.47,.21,5.15-.87,2.77-1.08,6.2-3.16,10.31-6.23,1.42-1.08,2.09-1.37,2.01-.87-.08,.33-1.24,1.29-3.46,2.87-2.22,1.58-4.17,2.83-5.85,3.74-1.09,.58-2.18,1.08-3.27,1.5-1.09,.42-2.12,.69-3.08,.81-.96,.12-1.74,.02-2.33-.31Zm-3.39-4.86c-.42,.5-.59,.75-.5,.75s.8-.37,2.14-1.12c2.85-1.58,4.27-2.78,4.27-3.62-.17-.5-.84-.33-2.01,.5-1.43,.92-2.72,2.08-3.9,3.49Z"/>
      <path d="M199.64,62.84c-.75-.42-.04-1.37,2.14-2.87l1.26-.87,1.38-2.12,1.63-2.74,.38-.5c-5.11,3.58-8.26,5.11-9.43,4.61-1.09-.5-.88-2.12,.63-4.86,.33-.66,1.72-2.37,4.15-5.11,.92-1,1.47-1.5,1.63-1.5,.42,0,.63,.25,.63,.75,0,.25-.92,1.42-2.77,3.49-1.26,1.41-2.22,2.6-2.89,3.55-.67,.96-1.07,1.66-1.19,2.12-.12,.46-.06,.77,.19,.94,.84,.33,2.56-.33,5.16-2,2.6-1.66,4.65-3.37,6.16-5.11,.75-.83,1.3-1.25,1.63-1.25,.17,0,.25,.08,.25,.25l-.25,.37c-.42,.42-.75,.79-1.01,1.12-1.26,1.83-2.89,4.32-4.9,7.48,1.93-.58,3.77-1.33,5.53-2.24,2.68-1.41,5.61-3.2,8.8-5.36,.25-.17,.46-.12,.63,.12,.08,.08,.08,.17,0,.25-4.44,3.16-9.6,5.86-15.46,8.1-.25,.08-.84,.62-1.76,1.62-1.26,1.41-2.1,2-2.51,1.75Zm.5-.62c.08,0,.54-.42,1.38-1.25,.33-.33,.33-.37,0-.12-.25,.25-.5,.46-.75,.62-.67,.5-.88,.75-.63,.75Z"/>
      <path d="M219.26,60.97c0-1.16,.92-2.99,2.77-5.49l.88-1.25-.13,.12c-.08,0-.23,.06-.44,.19-.21,.12-.4,.23-.57,.31-2.51,1.33-4.07,2-4.65,2-.34,0-.59-.08-.75-.25-.59-.83-.04-2.29,1.63-4.36,1.76-2.41,3.14-3.82,4.15-4.24l.38-.12c.33,0,.59,.25,.75,.75,.17,.25-.42,1-1.76,2.24-.67,.58-1.36,1.27-2.07,2.06-.71,.79-1.28,1.46-1.7,2-.42,.54-.59,.85-.5,.94,0,.08,.36-.02,1.07-.31,.71-.29,1.55-.69,2.51-1.18,.96-.5,1.78-.96,2.45-1.37,.75-.5,1.72-1.25,2.89-2.24,1.34-1.25,2.14-1.75,2.39-1.5,.25,.33,.29,.67,.13,1-.17,.33-.92,1.12-2.26,2.37-3.6,3.58-5.7,6.11-6.29,7.61-.75,1.91,.63,2.12,4.15,.62,4.44-1.91,10.06-5.36,16.85-10.35,.33-.17,.63-.12,.88,.12-2.43,2-5.41,4.03-8.93,6.11-4.27,2.74-7.5,4.49-9.68,5.24-2.77,1.08-4.15,.75-4.15-1Z"/>
      <path d="M243.9,60.22c-.34-.33-.46-.71-.38-1.12,.17-1.83,2.05-4.53,5.66-8.1l.75-.87h-.25c-.5,.25-.8,.42-.88,.5-4.44,3.66-7.46,5.28-9.05,4.86-1.17-.42-1.34-1.33-.5-2.74,.5-.66,.88-1.12,1.13-1.37l.38-.37c.84-.83,1.34-1,1.51-.5,.08,.17-.29,.79-1.13,1.87-1.09,1.25-1.51,2-1.26,2.24,.17,.17,.96-.12,2.39-.87,1.68-.75,3.27-1.75,4.78-2.99l1.01-.75-.5-.62c-1.26-1.16-.84-2.78,1.26-4.86,2.43-2.24,3.94-2.66,4.53-1.25,.25,.58,.08,1.41-.5,2.49-.25,.5-.92,1.5-2.01,2.99l-.38,.37,.38-.12c.17-.17,.48-.25,.94-.25s.77,.08,.94,.25c.17,.25-.46,1.04-1.89,2.37-3.27,3.24-5.37,5.78-6.29,7.61l-.38,.75,.5,.12c.25,0,1.01-.21,2.26-.62,.58-.25,1.68-.87,3.27-1.87,2.26-1.41,5.49-3.62,9.68-6.61,.33-.25,.75-.37,1.26-.37l.13,.12-.5,.5-9.3,6.48c-1.51,1-2.68,1.71-3.52,2.12-2.1,1.08-3.44,1.29-4.02,.62Zm4.15-10.97c.42,.17,1.05-.25,1.89-1.25,1.84-1.99,2.77-3.45,2.77-4.36,0-.17-.29-.17-.88,0-1.26,.67-2.35,1.66-3.27,2.99-.92,1.33-1.09,2.2-.5,2.62Z"/>
      <path d="M278.6,62.71c-1.59,1.16-3,1.73-4.21,1.68-1.21-.04-1.86-.73-1.95-2.06,0-.42-.17-.79-.5-1.12-.25-.17-.38-.46-.38-.87,.08-1.41,2.47-5.24,7.17-11.47l2.64-3.49c.5-.66,1.34-1.66,2.51-2.99,2.93-3.66,6.29-7.15,10.06-10.47,2.51-2.16,4.73-3.74,6.66-4.74,.42-.25,.88-.21,1.38,.12,.33,.25,.33,.58,0,1-.34,.42-1.38,1.54-3.14,3.37-4.78,4.57-8.42,7.81-10.94,9.73-2.1,1.58-3.69,3.04-4.78,4.36l-3.77,4.74c-1.26,1.58-1.89,2.58-1.89,2.99l.13,.62,.88-.62c1.93-1.5,3.6-2.16,5.03-2,1.59,.17,2.26,.96,2.01,2.37-.17,1-.67,2.12-1.51,3.37l-.5,.75c2.51,0,7.04-2.49,13.58-7.48,.33-.25,.58-.21,.75,.12-1.34,1.33-3.81,3.12-7.42,5.36-1.01,.58-2.22,1.17-3.65,1.75-1.17,.5-2.1,.79-2.77,.87l-1.13,.12-.88,1c-1.51,1.5-2.64,2.49-3.39,2.99Zm-4.9,.75c.5,.67,1.8,.17,3.9-1.5,1.93-1.58,3.06-2.7,3.39-3.37-.25,0-.84-.31-1.76-.93-.92-.62-1.55-1.27-1.89-1.93l-1.01,.87c-1.01,.92-1.76,1.87-2.26,2.87-1.01,1.91-1.13,3.24-.38,3.99Zm2.14-7.98c.08,.08,.29-.04,.63-.37,.33-.33,.5-.54,.5-.62l-.13-.37c-.08-.08-.17-.08-.25,0-.08,.08-.21,.29-.38,.62l-.38,.75Zm4.4,2.12c.67,.33,1.07,.48,1.19,.44,.13-.04,.36-.31,.69-.81,1.59-1.91,2.3-3.41,2.14-4.49-.17-.25-.38-.37-.63-.37-.34,0-1.26,.33-2.77,1-1.93,1-2.89,1.66-2.89,2,.25,1,1.01,1.75,2.26,2.24Zm7.79-17.33l1.13-.87c2.77-2,5.99-4.99,9.68-8.98l1.01-1.12c-.25,0-1.76,1.25-4.53,3.74-2.01,1.75-3.98,3.66-5.91,5.74l-1.38,1.5Z"/>
      <path d="M314.68,84.53c-1.84,.17-3.19-.23-4.02-1.18-.84-.95-1.05-2.35-.63-4.18,.84-2.41,2.7-4.69,5.6-6.86,2.89-2.16,6.31-3.78,10.25-4.86l1.76-.37,.38-1.5c.84-2.66,1.13-4.65,.88-5.98l-.13-1-2.39-.25c-.59-.08-1.01,0-1.26,.25-.25,.25-.59,.33-1.01,.25-1.01-.33-1.05-.83-.13-1.5,1.17-.83,2.64-1,4.4-.5,.42,.08,1.26-.12,2.51-.62,5.11-1.91,10.27-5.15,15.46-9.73,5.2-4.65,9.72-9.43,13.58-14.34,4.11-5.15,7.12-10.26,9.05-15.34,1.93-5.07,2.3-8.73,1.13-10.97-.5-1.08-1.63-1.62-3.39-1.62-.92,0-1.89,.08-2.89,.25-4.78,1.08-9.89,3.16-15.34,6.23-5.78,3.24-11.15,7.32-16.09,12.22-5.78,6.07-9.35,11.89-10.69,17.46-.5,2.08-.71,3.97-.63,5.67,.08,1.71,.44,3.08,1.07,4.12,.63,1.04,1.4,1.39,2.33,1.06,.42-.17,.63-.17,.63,0,0,.33-.59,.5-1.76,.5-1.51-.25-2.6-1.66-3.27-4.24-.42-2.16-.42-4.24,0-6.23,.75-4.74,3.6-10.18,8.55-16.33,2.34-2.66,5.38-5.46,9.12-8.42,3.73-2.95,7.4-5.42,11-7.42,5.7-3.07,10.6-4.99,14.71-5.74,1.17-.17,2.18-.25,3.02-.25,1.17,.08,2.18,.33,3.02,.75,1.42,.75,2.39,1.83,2.89,3.24,.67,1.75,.71,3.95,.12,6.61-1.59,7.73-6.2,15.83-13.83,24.31-4.36,4.91-8.51,8.98-12.45,12.22-4.95,3.74-9.68,6.32-14.21,7.73l-1.63,.5,.25,.62c.25,.75,.36,1.66,.31,2.74-.04,1.08-.15,2.12-.31,3.12l-.25,1.5c1.01-.17,2.81-.44,5.41-.81,2.6-.37,4.34-.64,5.22-.81,.88-.17,2.39-.48,4.53-.94,2.14-.46,3.71-.87,4.71-1.25s2.45-.94,4.34-1.68,3.54-1.56,4.97-2.43c1.42-.87,3.06-1.93,4.9-3.18,1.84-1.25,3.77-2.66,5.78-4.24,.42-.33,.67-.33,.75,0,.08,.17-.04,.37-.38,.62-2.51,2-4.7,3.64-6.54,4.92-1.84,1.29-3.75,2.45-5.72,3.49-1.97,1.04-3.46,1.83-4.46,2.37-1.01,.54-2.66,1.08-4.97,1.62-2.31,.54-3.94,.92-4.9,1.12-.96,.21-3.1,.58-6.41,1.12-3.31,.54-5.85,.98-7.61,1.31-1.34,3.82-3.65,7.52-6.92,11.1-3.27,3.58-6.08,5.49-8.42,5.74Zm-1.26-1c2.26-.17,4.73-1.87,7.42-5.11,2.01-2.33,3.69-4.86,5.03-7.61,1.01-1.75,1.47-2.66,1.38-2.74-.08-.08-.86,.15-2.33,.69-1.47,.54-2.58,.98-3.33,1.31-4.78,2.33-7.88,4.86-9.3,7.61-.75,1.41-1.05,2.79-.88,4.11,.17,1.33,.84,1.91,2.01,1.75Z"/>
      <path d="M398.54,73.69c-.92-.17-1.47-.83-1.63-2-.17-3.41,4.78-11.3,14.84-23.69l1.01-1.62-1.01-.37c-7.63-2.91-12.87-4.61-15.72-5.11-.34,0-3.19,1.37-8.55,4.11-7.13,3.91-12.82,8.15-17.1,12.72-2.35,2.58-3.52,4.53-3.52,5.86,0,.17,.13,.04,.38-.37l.12-.5,.13,.5-.38,.87c-.25,.58-.58,.67-1.01,.25-.5-.5-.33-1.54,.5-3.12,1.51-2.74,3.39-5.15,5.66-7.23,3.1-2.83,7.29-5.78,12.57-8.85,.92-.5,2.47-1.27,4.65-2.31,2.18-1.04,3.4-1.64,3.65-1.81l.75-.5-.63-.12c-2.01-.66-4.65-1-7.92-1-6.12,.33-11.15,1.91-15.09,4.74-1.59,1.17-2.51,2.29-2.77,3.37,0,.58,.75,.87,2.26,.87,.17,0,.25,.04,.25,.12-.34,.33-1.01,.42-2.01,.25-.42-.17-.67-.33-.75-.5-.75-1.58,.5-3.49,3.77-5.74,3.69-2.33,8.38-3.62,14.08-3.87,3.35,0,6.29,.33,8.8,1l1.38,.25,10.69-4.86c14.92-6.73,23.34-10.64,25.27-11.72,1.09-.58,1.93-1.25,2.51-1.99,2.93-3.24,6.87-6.69,11.82-10.35,2.18-1.83,4.02-3.03,5.53-3.62,.59-.17,1.13-.12,1.63,.12s.71,.58,.63,1c0,.92-1.97,2.83-5.91,5.74-4.86,3.66-7.84,5.78-8.93,6.36-.84,.33-1.55,.79-2.14,1.37-2.51,2.16-7,7.23-13.45,15.21-4.95,5.82-7.42,8.94-7.42,9.35,10.06,4.24,15.88,5.65,17.48,4.24,.58-.5,.96-.66,1.13-.5,.25,.17,0,.54-.75,1.12-1.34,.83-3.1,1-5.28,.5-2.18-.5-6.54-2.08-13.08-4.74l-1,1.25c-6.96,8.4-11.69,14.92-14.21,19.58-1.43,2.74-1.84,4.45-1.26,5.11,.42,.42,.42,.62,0,.62Zm14.84-28.05c.42-.41,.88-.95,1.38-1.62,1.68-2,4.06-4.94,7.17-8.85,3.1-3.91,5.24-6.52,6.41-7.85l1.76-2.12-2.01,.87c-3.86,1.91-11.57,5.49-23.13,10.72l-6.79,2.99-1.13,.62c.17,0,.42,.04,.75,.12,2.18,.58,4.57,1.29,7.17,2.12,2.6,.83,4.65,1.54,6.16,2.12l2.26,.87Zm27.41-27.93l.88-.62c3.35-2.33,6.54-4.99,9.56-7.98l.13-.25c-.34,.17-1.09,.71-2.26,1.62-1.09,.83-3.48,2.87-7.17,6.11l-1.13,1.12Z"/>
      <path d="M425.7,73.31c-.33-.08-.61-.21-.82-.37-.21-.17-.27-.33-.19-.5,.08-.08,.21-.12,.38-.12s.29,.04,.38,.12c.08,.17,.8,.19,2.14,.06,1.34-.12,2.47-.35,3.39-.69,3.1-1,6.26-3.28,9.49-6.86,3.23-3.57,7.86-9.39,13.89-17.46,1.34-1.83,2.39-3.24,3.14-4.24,9.13-12.22,15.04-19.7,17.73-22.44,4.94-5.15,8.63-7.98,11.06-8.48,1.68-.25,2.85,.17,3.52,1.25l.25,.5-.5-.37c-.67-.67-1.59-.79-2.77-.37-1.93,.67-4.7,2.91-8.3,6.73-2.18,2.33-5.95,7.07-11.32,14.21-8.88,12.14-15.3,20.57-19.24,25.31-8.13,10.14-15.55,14.71-22.25,13.71Zm19.86-39.65c-.59,.58-1.01,.5-1.26-.25-.17-.42-.17-1,0-1.75,.33-1.75,1.17-3.66,2.51-5.74,2.26-3.41,5.7-6.61,10.31-9.6,12.49-8.73,25.94-10.35,40.36-4.86,8.72,3.58,16.72,4.78,24.01,3.62,7.29-1.16,14.29-4.9,21-11.22,2.01-1.91,2.97-3.07,2.89-3.49-.17-.25-.08-.37,.25-.37,.67,0,1,.33,1,1,0,.75-1.09,2.2-3.27,4.36-4.19,4.32-9.18,7.46-14.96,9.41-5.78,1.95-11.53,2.51-17.22,1.68-3.19-.42-7.75-1.75-13.7-3.99-6.12-2.41-11.57-3.55-16.34-3.43s-10.39,1.56-16.85,4.3c-2.43,1.16-5.03,2.7-7.79,4.61-2.77,1.91-4.95,3.7-6.54,5.36-2.93,3.08-4.7,6.11-5.28,9.1-.08,.42-.13,.71-.13,.87s.08,.27,.25,.31c.17,.04,.42-.02,.75-.19,.17-.08,.25-.1,.25-.06s-.08,.15-.25,.31Z"/>
      <path d="M466.56,66.7c-1.26-4.65-.08-10.22,3.52-16.71,2.09-3.74,4.99-7.81,8.68-12.22,6.62-7.98,13.33-14.67,20.12-20.07,5.95-4.82,11.44-7.9,16.47-9.23,1.26-.33,2.22-.46,2.89-.37,1.09,.17,2.01,.6,2.77,1.31,.75,.71,1.17,1.52,1.26,2.43,.17,2.83-1.76,7.15-5.78,12.97-2.51,3.66-6.37,8.15-11.57,13.47-4.28,4.49-7.38,6.73-9.3,6.73-.42,0-.8-.12-1.13-.37-.34-.25-.5-.54-.5-.87s.08-.5,.25-.5c.5,0,.75,.17,.75,.5,0,.25,.21,.33,.63,.25,1.34-.42,3.52-2.04,6.54-4.86,4.69-4.32,9.05-9.31,13.08-14.96,2.09-2.99,3.69-5.86,4.78-8.6,1.26-3.24,1.3-5.19,.13-5.86-1.51-.91-4.82,.08-9.93,2.99-7.88,4.41-16.72,12.18-26.53,23.32-7.04,7.9-11.69,14.63-13.96,20.2-1.59,3.91-2.2,7.21-1.82,9.91,.38,2.7,1.61,4.34,3.71,4.93,2.18,.67,6.12-.37,11.82-3.12,6.71-3.24,15-8.85,24.89-16.83,.42-.33,.71-.42,.88-.25,.25,.25,.08,.54-.5,.87-.08,.08-1.89,1.43-5.41,4.05s-6.54,4.8-9.05,6.55c-2.51,1.75-4.57,3.08-6.16,3.99-2.85,1.58-5.2,2.79-7.04,3.62-1.84,.83-3.88,1.5-6.1,2-2.22,.5-4.02,.31-5.41-.56-1.38-.87-2.37-2.43-2.95-4.68Z"/>
      <path d="M505.91,57.23c-1.09-1.08-1.01-2.49,.25-4.24,.92-1.58,2.26-2.74,4.02-3.49,1.01-.42,1.72-.42,2.14,0,.33,.25,.4,.67,.19,1.25-.21,.58-.61,1.08-1.2,1.5-1.17,.83-2.39,1.33-3.65,1.5-.34,0-.63,.21-.88,.62-1.01,1.75-.55,2.74,1.38,2.99,3.77,0,8.46-1.95,14.08-5.86l1.51-1c.08-.08,.21-.08,.38,0,.17,.08,.21,.21,.13,.37-3.1,2.49-6.62,4.49-10.56,5.98-3.94,1.5-6.54,1.62-7.8,.37Zm1.89-4.24c.58,0,1.42-.33,2.51-1,.75-.5,1.26-1.04,1.51-1.62,.08-.25,0-.37-.25-.37l-1.38,.75c-1.68,1.25-2.47,2-2.39,2.24Z"/>
    </g>
  </g>
</svg>